<svg xmlns="http://www.w3.org/2000/svg" width="155.802" height="187.036" viewBox="0 0 155.802 187.036">
  <g id="atencion_perso" data-name="atencion perso" transform="translate(-6.764 -1.521)">
    <path id="Trazado_157" data-name="Trazado 157" d="M138.77,147.64a168.532,168.532,0,0,1-26.784-24.23,10.9,10.9,0,0,0-2.613-2.168,4.832,4.832,0,0,0-4.929-.386L98.535,124.3a8.8,8.8,0,0,1-2.435-2.2A248.8,248.8,0,0,1,62.22,63.4a8.669,8.669,0,0,1-.683-3.058l6-3.474c2.079-1.217,2.672-4.276,1.544-7.75a164.9,164.9,0,0,1-7.572-35.187A13.238,13.238,0,0,0,54.915,4.1C48.739.983,42.889.686,38.495,3.24l-24.2,14.045c-.03,0-.03.03-.059.059a14.453,14.453,0,0,0-1.4.95C7.168,22.778,5.327,31.953,7.91,42.91,19.788,92.974,49.274,144.017,86.747,179.471a41.148,41.148,0,0,0,7.512,5.7,22.723,22.723,0,0,0,11.194,3.385,13.639,13.639,0,0,0,6.473-1.574l.267-.178a.109.109,0,0,0,.089-.03l24.23-14.075c4.424-2.554,7.067-7.809,7.483-14.787C144.2,154.35,141.977,149.926,138.77,147.64Zm-108-129.494c-.03,0-.03-.03-.059-.03a22.307,22.307,0,0,0-9.146-2.583L39.593,5.051c3.771-2.2,8.849-1.871,14.312.891a11.3,11.3,0,0,1,5.464,8.136A167.864,167.864,0,0,0,67.03,49.74c.772,2.405.534,4.543-.594,5.2L45.354,67.17a9.993,9.993,0,0,0-.534-4.038,164.016,164.016,0,0,1-7.542-35.187,13.155,13.155,0,0,0-6.5-9.8Zm49.47,116.785a3.661,3.661,0,0,0-1.277,1.247c-.445.683-.891,1.336-1.307,2.019-.921,1.425-2.791.5-3.326.178a8.8,8.8,0,0,1-2.435-2.2A241.977,241.977,0,0,1,57.35,115.3,248.236,248.236,0,0,1,38.02,77.474c-.831-2.049-.92-4.1-.208-5.2a1.6,1.6,0,0,1,1.336-.772l2.405-.089a4.13,4.13,0,0,0,1.722-.475h.03l16.183-9.383a10.647,10.647,0,0,0,.742,2.672,250.442,250.442,0,0,0,34.177,59.209,11.473,11.473,0,0,0,2.079,2.079Zm55.2,35.87L117.42,181.282a22.894,22.894,0,0,0,2.375-9.294c.208-3.563-2.049-7.988-5.226-10.274a168.533,168.533,0,0,1-26.784-24.23,10.361,10.361,0,0,0-2.613-2.168c-.238-.119-.445-.238-.683-.356l21.082-12.234a2.879,2.879,0,0,1,2.762.386,9.148,9.148,0,0,1,2.079,1.722,168.754,168.754,0,0,0,27.11,24.557c2.583,1.871,4.484,5.553,4.335,8.374-.386,6.325-2.613,10.808-6.414,13.035Z" transform="translate(0 0)" fill="#2d5c00"/>
    <path id="Trazado_158" data-name="Trazado 158" d="M80.832,10.5c-1.158-.653-2.2-1.188-3.207-1.663-6.948-3.177-13.6-3.3-18.677-.356L44.725,16.77h-.03l-.059.059a.224.224,0,0,1-.119.03C39.409,19.917,36.292,25.916,35.7,33.7A50.671,50.671,0,0,0,39.053,54.57a1.223,1.223,0,0,1,.089.742l-5.85,14.164a2.639,2.639,0,0,0,1.188,2.969,1.874,1.874,0,0,0,.683.238l15.084,2.108c.03,0,.059.03.148.059a1.985,1.985,0,0,1,.475.416A55.14,55.14,0,0,0,65.3,87.916c.742.416,1.485.831,2.227,1.188a26.082,26.082,0,0,0,11.4,2.969,16.272,16.272,0,0,0,8.2-2.108.109.109,0,0,0,.089-.03c.03,0,.03-.03.059-.03l14.164-8.255c5.464-3.148,8.7-9.532,9.086-17.935.891-19-12.709-43.382-29.694-53.211Zm13.3,61.406c-.356,7.572-3.148,13.273-7.839,16.064-4.721,2.821-11.046,2.554-17.786-.8-.713-.356-1.4-.713-2.079-1.128A51.746,51.746,0,0,1,52.593,73.9a3.845,3.845,0,0,0-1.069-.921,2.3,2.3,0,0,0-.921-.327L35.579,70.6c-.089-.059-.208-.3-.267-.3l5.85-14.164a3.071,3.071,0,0,0-.089-2.286,48.83,48.83,0,0,1-3.207-19.984c.534-7.067,3.3-12.442,7.78-15.144.03,0,.03-.03.059-.059a.109.109,0,0,1,.089-.03c4.454-2.613,10.393-2.435,16.688.445A32.06,32.06,0,0,1,65.51,20.66C81.871,30.1,95,53.56,94.135,71.911Z" transform="translate(51.999 9.542)" fill="#2d5c00"/>
    <path id="Trazado_159" data-name="Trazado 159" d="M58.54,16.673c-5.612-3.237-10.927-3.712-15-1.4-4.038,2.316-6.3,7.126-6.3,13.54-.03,12.768,8.967,28.357,20.1,34.771a18.832,18.832,0,0,0,9.353,2.851,11.1,11.1,0,0,0,5.642-1.455c4.038-2.316,6.3-7.126,6.3-13.511,0-12.8-9-28.417-20.1-34.8Zm-.208,22.419c.059,0,.089.03.148.059a12.119,12.119,0,0,1,5.553,9.591A4.5,4.5,0,0,1,62.014,52.9a3.548,3.548,0,0,1-1.841.475,3.809,3.809,0,0,1-1.128-.148V54.71a1.084,1.084,0,0,1-1.069,1.069,1.065,1.065,0,0,1-1.069-1.069V52.246a12.036,12.036,0,0,1-5.018-9.264,1.065,1.065,0,0,1,1.069-1.069,1.084,1.084,0,0,1,1.069,1.069,10.009,10.009,0,0,0,4.454,7.72,2.6,2.6,0,0,0,2.465.356,2.567,2.567,0,0,0,.95-2.286,10.066,10.066,0,0,0-4.335-7.631.5.5,0,0,1-.148-.059,11.924,11.924,0,0,1-5.523-9.591,4.5,4.5,0,0,1,2.019-4.157,4.061,4.061,0,0,1,3.029-.327V25.551a1.069,1.069,0,1,1,2.138,0v2.465a12.173,12.173,0,0,1,4.989,9.235,1.053,1.053,0,0,1-1.1,1.069A1.084,1.084,0,0,1,61.9,37.251a10.044,10.044,0,0,0-4.454-7.72,2.731,2.731,0,0,0-2.524-.356A2.522,2.522,0,0,0,54,31.46a9.9,9.9,0,0,0,4.335,7.631Z" transform="translate(60.038 24.248)" fill="#2d5c00"/>
  </g>
</svg>
