<svg version="1.2" xmlns="http://www.w3.org/2000/svg" viewBox="0 0 191 191" width="191" height="191">
	<style>
		.s0 { fill: #003f4a } 
		.s1 { fill: #f2970c } 
		.s2 { fill: #ffffff } 
		.s3 { fill: #2d5b03 } 
		.s4 { fill: #3d680f } 
	</style>
	<g id="Layer_1">
		<g>
			<path fill-rule="evenodd" class="s0" d="m113.1 57.24c9.53 5.52 14.13 9.78 14.07 9.89-0.14 0.21-0.48-0.31-0.48-0.31-3.48-2.01-8.28-1.73-13.59 1.33l-13.58-9.59c5.31-3.06 10.11-3.35 13.58-1.32z"/>
			<path fill-rule="evenodd" class="s1" d="m51.97 196.06c-9.09-5.29-18.17-10.55-27.27-15.86q-0.1-0.05-0.21-0.13l27.27 15.86q0.11 0.06 0.21 0.13z"/>
			<path fill-rule="evenodd" class="s2" d="m177.24 10.14c4.83-2.79 8.76-0.54 8.77 5.02l0.18 63.24c0.04 5.57-3.89 12.34-8.73 15.12l-95.18 54.97-24.14 43.73c-0.87 1.63-1.98 2.96-3.2 3.67-1.2 0.69-2.31 0.66-3.18 0.04l-26.58-16.64c-0.75-0.25-1.4-0.66-1.92-1.27-0.58-0.61-1.04-1.54-1.27-2.73-0.06-0.31-0.09-0.54-0.11-0.78-0.06-0.53-0.07-0.77-0.07-1.01l-0.19-63.44c-0.01-5.55 3.91-12.32 8.73-15.11z"/>
			<path fill-rule="evenodd" class="s3" d="m175.3 85.72c0.02 4.92-3.45 10.93-7.75 13.41l-8.63 4.99-19.29 11.13-30.1 17.39-19.3 11.13-7.11 4.12-21.43 38.78c-0.76 1.46-1.74 2.65-2.83 3.27-1.06 0.61-2.04 0.57-2.82 0.02l-23.6-14.75q-0.98-0.33-1.67-1.12c-0.53-0.56-0.93-1.38-1.14-2.44-0.04-0.26-0.08-0.46-0.09-0.68-0.06-0.48-0.06-0.69-0.08-0.91l-0.16-56.27c0-1.27 0.21-2.6 0.64-3.92 1.19-3.86 3.93-7.66 7.12-9.49l7.46-4.33 30.11-17.36 19.3-11.15 27.76-16.03 19.29-11.16 26.37-15.2c4.28-2.47 7.77-0.49 7.78 4.45l0.09 30.04 0.06 22.04z"/>
			<path fill-rule="evenodd" class="s3" d="m167.84 0.59c-1.59-0.93-3.79-0.79-6.23 0.62l-146.87 84.8c-4.83 2.79-8.75 9.56-8.74 15.11l0.19 63.42c0.01 0.27 0.02 0.51 0.07 1.02 0.03 0.24 0.06 0.47 0.11 0.77 0.25 1.18 0.69 2.12 1.28 2.75q0.48 0.54 1.09 0.9 1.65 0.96 3.32 1.92l12.43 8.17 27.27 15.86-26.58-16.64-1.51-0.88q-0.21-0.19-0.4-0.39c-0.58-0.61-1.04-1.54-1.28-2.73-0.06-0.31-0.09-0.54-0.11-0.78-0.05-0.53-0.07-0.77-0.07-1.01l-0.19-63.44c-0.01-5.55 3.91-12.32 8.74-15.11l146.88-84.81c2.43-1.39 4.63-1.54 6.23-0.61-9.1-5.28-6.53-3.65-15.63-8.94z"/>
			<path fill-rule="evenodd" class="s4" d="m109.53 132.64l-19.3 11.13-60.29-33.9c1.2-3.86 3.93-7.66 7.12-9.49l7.47-4.33 65 36.58z"/>
			<path fill-rule="evenodd" class="s4" d="m158.92 104.12l-19.29 11.13-65-36.56 19.3-11.15 64.99 36.58z"/>
			<path fill-rule="evenodd" class="s4" d="m175.28 81.68l-53.59-30.16 19.29-11.16 34.24 19.28 0.06 22.04z"/>
			<path fill-rule="evenodd" class="s2" d="m47.05 144.34l0.08-0.55 0.44-3.34 0.17-1.3 0.11-0.76 0.43-3.25-8.8-4.76 5.6-4.18 0.32-0.22 0.11-0.09 4.12-3.08 0.05-0.04 0.23-0.15 1.71-1.27 2.19-6.43 0.93-2.69 0.33-1.01 0.4-1.16 0.86-2.51 0.47-1.39 0.2-0.6 0.62 1.06 1.45 2.51 2.55 4.46 0.85 1.48 1.01-0.41 3.05-1.25 1.69-0.72 6.41-2.61-2.76 4.7-0.75 1.25-1.31 2.24-0.61 1.05-0.53 0.9-1.4 2.4-1.41 2.38 1.25 7.44 0.05 0.36 0.01 0.07 0.8 4.83-1.91-0.05-0.33-0.01-0.74-0.02-7.89-0.21-3.58 4.24-0.46 0.54-0.8 0.94-2.05 2.42-0.33 0.4-1.06 1.27-2.56 3.02 0.55-4.18 0.24-1.72z"/>
			<path fill-rule="evenodd" class="s2" d="m97.48 114.13l0.07-0.56 0.45-3.34 0.18-1.28 0.09-0.76 0.45-3.27-8.81-4.75 5.61-4.18 0.3-0.22 0.11-0.09 4.14-3.08 0.05-0.04 0.2-0.17 1.73-1.27 2.19-6.42 0.91-2.68 0.35-1.01 0.39-1.16 0.86-2.5 0.49-1.42 0.19-0.58 0.62 1.06 1.43 2.49 2.57 4.47 0.85 1.48 1.02-0.4 3.05-1.26 1.68-0.69 6.41-2.64-2.77 4.71-0.73 1.26-1.32 2.23-0.61 1.06-0.54 0.9-1.39 2.37-1.41 2.4 1.24 7.45 0.06 0.35 0.01 0.06 0.8 4.84-1.9-0.04-0.35-0.04-0.73-0.01-7.89-0.21-3.58 4.24-0.46 0.55-0.8 0.94-2.05 2.42-0.34 0.41-1.06 1.26-2.57 3.02 0.58-4.17 0.23-1.73z"/>
			<path fill-rule="evenodd" class="s2" d="m148.93 82.35l0.06-0.55 0.46-3.34 0.18-1.29 0.09-0.75 0.44-3.27-8.81-4.76 5.61-4.18 0.3-0.22 0.11-0.09 4.13-3.07 0.06-0.04 0.22-0.16 1.72-1.28 2.19-6.41 0.92-2.71 0.34-0.98 0.4-1.17 0.85-2.51 0.48-1.4 0.21-0.6 0.6 1.06 1.44 2.5 2.57 4.47 0.85 1.49 1.01-0.42 3.03-1.27 1.71-0.69 6.41-2.61-2.77 4.7-0.73 1.25-1.31 2.24-0.62 1.06-0.54 0.88-1.4 2.4-1.39 2.39 1.24 7.44 0.05 0.34 0.01 0.09 0.81 4.82-1.91-0.04-0.35-0.02-0.72-0.02-7.91-0.21-3.58 4.23-0.45 0.56-0.8 0.93-2.04 2.43-0.35 0.41-1.05 1.24-2.57 3.02 0.56-4.15 0.24-1.74z"/>
		</g>
	</g>
</svg>