<svg xmlns="http://www.w3.org/2000/svg" width="185.367" height="191.704" viewBox="0 0 185.367 191.704">
  <g id="presentacion-empresarial" transform="translate(-2.55 -1.498)">
    <path id="Trazado_3229" data-name="Trazado 3229" d="M98.063,167.55c0-3.925-2.586-7.577-7.272-10.285a29.574,29.574,0,0,0-8.489-3.134l.122-24.677,47.285-27.263a1.163,1.163,0,0,0,.548-.974l-.03-7.82a1.275,1.275,0,0,0-.122-.487c-.03-.03-.061-.091-.091-.122a.6.6,0,0,0-.274-.274c-.03-.03-.03-.061-.061-.061l-5.9-3.438-.152-67.094,5.507-3.165a1.163,1.163,0,0,0,.548-.974l-.03-6.359a.112.112,0,0,0-.03-.091.106.106,0,0,1,.03-.061,1.163,1.163,0,0,0-.548-.974L114.251,1.657a1.071,1.071,0,0,0-1.126,0L3.1,65.1a.989.989,0,0,0-.4.4c-.03.03,0,.061-.03.091a1.128,1.128,0,0,0-.122.456h0l.03,7.85a1.075,1.075,0,0,0,.548.943L10.7,79.248l.183,63.807-7.211,4.2c-.03.03-.03.061-.061.061a.6.6,0,0,0-.274.274.42.42,0,0,0-.091.122,1,1,0,0,0-.122.517l.03,7.85a1.075,1.075,0,0,0,.548.943l14.849,8.642a1.24,1.24,0,0,0,.548.152,1.139,1.139,0,0,0,.548-.152l46.494-26.807-.061,15.275a29.713,29.713,0,0,0-8.459,3.134c-4.595,2.678-7.12,6.268-7.151,10.163v.061l-.03,11.35c0,3.956,2.556,7.607,7.272,10.315A34.053,34.053,0,0,0,74.33,193.14a33.767,33.767,0,0,0,16.583-3.986c4.595-2.678,7.151-6.3,7.151-10.193l.03-11.41c-.03.03-.03.03-.03,0Zm-77.835-4.777v-5.294L128.065,95.314v5.294Zm59.608-115.6L121.4,23.231l.183,68.1-101.69,58.6-.213-68.1ZM121.949,20.34,19.62,79.309V75.354L127.457,13.189v3.956ZM4.741,67.99l4.686,2.739,7.942,4.625.03,5.264L4.771,73.285ZM17.46,83.235l.183,66.7-4.564-2.647-.152-66.7ZM5.38,155.41v-5.264l12.628,7.333v5.294ZM80.2,130.763l-.122,24.251-.061,14c0,.669-.548,1.339-1.491,1.887a9.926,9.926,0,0,1-8.794,0c-.974-.548-1.521-1.248-1.491-1.917l.152-31.432ZM58.72,159.183a26.629,26.629,0,0,1,7.333-2.8l-.061,12.567c-.03,1.491.913,2.86,2.617,3.864a7.811,7.811,0,0,0,1.248.578,12.457,12.457,0,0,0,8.276.091,7.674,7.674,0,0,0,1.521-.669,4.522,4.522,0,0,0,2.586-3.8l.061-12.658a26.674,26.674,0,0,1,7.394,2.8c3.956,2.282,6.146,5.264,6.146,8.368a5.943,5.943,0,0,1-.091,1.035v.122c-.456,2.647-2.526,5.173-5.933,7.151-6.39,3.712-15.792,4.625-23.734,2.769a26.728,26.728,0,0,1-7.242-2.769c-3.469-2.008-5.568-4.534-6.055-7.242v-.122a5.942,5.942,0,0,1-.091-1.035c0-3.043,2.16-5.964,6.025-8.246Z" transform="translate(0)" fill="#2d5c00"/>
    <path id="Trazado_3230" data-name="Trazado 3230" d="M18.529,50.26a1.24,1.24,0,0,0,.548.152,1.139,1.139,0,0,0,.548-.152L38.7,39.245a1.163,1.163,0,0,0,.548-.974v-.4a5.624,5.624,0,0,0-.03-.73c-.03-.335-.03-.7-.091-1.035-.061-.609-.152-1.217-.243-1.765a3.955,3.955,0,0,0-.091-.456,6.229,6.229,0,0,1-.152-.73l-.091-.365c-.091-.3-.183-.609-.274-.852-1.765-5.416-5.812-8.4-11.228-8.185-.243,0-.487.03-.791.03a16.814,16.814,0,0,0-4.169.974c-.487.183-1,.4-1.491.609-.73.335-1.461.7-2.191,1.126a1.163,1.163,0,0,0-.548.974l.061,21.786a1.233,1.233,0,0,0,.609,1Z" transform="translate(31.275 45.45)" fill="#2d5c00"/>
    <path id="Trazado_3231" data-name="Trazado 3231" d="M16.386,74.863a11.04,11.04,0,0,0,5.538,1.43,18.7,18.7,0,0,0,9.128-2.769c10.832-6.238,19.6-21.513,19.565-34.049a1.163,1.163,0,0,0-.548-.974,1.085,1.085,0,0,0-1.1,0L31.539,48.573,31.478,28.7a1.163,1.163,0,0,0-.548-.974,1.085,1.085,0,0,0-1.1,0C19,33.967,10.24,49.181,10.27,61.626c-.03,6.268,2.16,10.984,6.116,13.236ZM29.257,30.712l.061,19.778a1.163,1.163,0,0,0,.548.974,1.085,1.085,0,0,0,1.1,0L48.305,41.453c-.822,11.41-8.733,24.586-18.409,30.154-4.747,2.739-9.159,3.225-12.445,1.339-3.225-1.856-5.021-5.873-5.051-11.319.03-11.076,7.424-24.494,16.857-30.915Z" transform="translate(15.77 53.284)" fill="#2d5c00"/>
    <path id="Trazado_3232" data-name="Trazado 3232" d="M37.733,20.424a1.24,1.24,0,0,0,.548-.152l6.877-3.986a1.112,1.112,0,1,0-1.126-1.917l-6.877,3.986a1.122,1.122,0,0,0-.4,1.521,1.2,1.2,0,0,0,.974.548Z" transform="translate(69.581 25.992)" fill="#2d5c00"/>
    <path id="Trazado_3233" data-name="Trazado 3233" d="M27.543,32.954a1.24,1.24,0,0,0,.548-.152L52.22,18.9a1.112,1.112,0,1,0-1.126-1.917L26.965,30.885a1.111,1.111,0,0,0,.578,2.069Z" transform="translate(48.765 31.324)" fill="#2d5c00"/>
    <path id="Trazado_3234" data-name="Trazado 3234" d="M56.911,18.859l-26.046,15a1.122,1.122,0,0,0-.4,1.521,1.1,1.1,0,0,0,.974.548,1.24,1.24,0,0,0,.548-.152l26.046-15a1.112,1.112,0,0,0-1.126-1.917Z" transform="translate(56.731 35.165)" fill="#2d5c00"/>
    <path id="Trazado_3235" data-name="Trazado 3235" d="M27.543,30.662a1.24,1.24,0,0,0,.548-.152l6.572-3.8a1.112,1.112,0,1,0-1.126-1.917l-6.572,3.8a1.122,1.122,0,0,0-.4,1.521,1.2,1.2,0,0,0,.974.548Z" transform="translate(48.764 47.278)" fill="#2d5c00"/>
    <path id="Trazado_3236" data-name="Trazado 3236" d="M47.718,23.349l-12.354,7.12a1.122,1.122,0,0,0-.4,1.521,1.1,1.1,0,0,0,.974.548,1.24,1.24,0,0,0,.548-.152l12.384-7.12a1.122,1.122,0,0,0,.4-1.521,1.166,1.166,0,0,0-1.552-.4Z" transform="translate(65.924 44.337)" fill="#2d5c00"/>
    <path id="Trazado_3237" data-name="Trazado 3237" d="M27.543,40.381a1.24,1.24,0,0,0,.548-.152L48.234,28.636a1.112,1.112,0,1,0-1.126-1.917L26.965,38.312a1.122,1.122,0,0,0-.4,1.521,1.2,1.2,0,0,0,.974.548Z" transform="translate(48.765 51.221)" fill="#2d5c00"/>
    <path id="Trazado_3238" data-name="Trazado 3238" d="M57.565,27.839,30.545,43.418a1.122,1.122,0,0,0-.4,1.521,1.1,1.1,0,0,0,.974.548,1.24,1.24,0,0,0,.548-.152l27.02-15.579a1.112,1.112,0,1,0-1.126-1.917Z" transform="translate(56.078 53.509)" fill="#2d5c00"/>
    <path id="Trazado_3239" data-name="Trazado 3239" d="M27.543,39.049a1.24,1.24,0,0,0,.548-.152l5.081-2.921a1.112,1.112,0,0,0-1.126-1.917L26.965,36.98a1.122,1.122,0,0,0-.4,1.521A1.2,1.2,0,0,0,27.543,39.049Z" transform="translate(48.764 66.215)" fill="#2d5c00"/>
    <path id="Trazado_3240" data-name="Trazado 3240" d="M114.9,58.778c0-5.234-3.438-10.072-9.676-13.693-12.415-7.181-32.558-7.181-44.881,0-6.146,3.56-9.524,8.368-9.554,13.51v.03l-.03,8.124a28.7,28.7,0,0,0-2.891,1.491c-6.146,3.56-9.524,8.4-9.554,13.571v.03l-.03,14.21c-.03,5.234,3.438,10.1,9.707,13.723,6.207,3.59,14.332,5.386,22.456,5.386s16.249-1.8,22.425-5.386c6.146-3.59,9.524-8.4,9.524-13.54l.03-8.124c1-.456,1.978-.943,2.921-1.491,6.146-3.56,9.524-8.368,9.554-13.54l.03-14.24a.094.094,0,0,1-.03-.061ZM61.436,47c5.873-3.408,13.571-5.112,21.3-5.112S98.193,43.595,104.1,47c5.538,3.195,8.581,7.364,8.581,11.745,0,4.351-2.982,8.52-8.429,11.684-11.715,6.816-30.854,6.816-42.66,0a24.767,24.767,0,0,1-3.408-2.343c-.152-.122-.3-.274-.487-.4-3.043-2.678-4.716-5.781-4.716-9.007C52.977,54.336,55.989,50.2,61.436,47ZM48.96,70.158c.578-.335,1.156-.639,1.765-.943v3.651a11.129,11.129,0,0,0,.152,1.734A9.931,9.931,0,0,0,47.5,82.695c.365,3.469,2.83,6.694,6.938,9.068A32.683,32.683,0,0,0,70.442,95.6,32.856,32.856,0,0,0,86.2,91.884a51.306,51.306,0,0,0,10.011-1.613A22.282,22.282,0,0,1,91.8,93.588c-11.715,6.816-30.854,6.816-42.66,0-5.538-3.195-8.581-7.394-8.581-11.776-.061-4.321,2.952-8.489,8.4-11.654ZM100.14,96.2c0,4.351-2.982,8.459-8.429,11.623-11.715,6.816-30.854,6.816-42.66,0-5.538-3.195-8.581-7.364-8.581-11.776l.03-7.272a21.778,21.778,0,0,0,7.485,6.755c6.207,3.59,14.332,5.355,22.456,5.355S86.691,99.1,92.868,95.5a21.494,21.494,0,0,0,7.211-6.451c.03,0,.061-.03.091-.03Zm12.475-23.156c0,4.351-3.012,8.489-8.429,11.623a32.352,32.352,0,0,1-4.382,2.1c-.183.061-.335.152-.517.213a46.771,46.771,0,0,1-13.6,2.739h-.03C77.045,90.18,68.13,88.506,61.5,84.7c-4.808-2.769-7.7-6.268-8.4-10.011v-.03a11.129,11.129,0,0,1-.152-1.734l.03-5.386V65.685a11.889,11.889,0,0,0,.913,1.248c.03.03.03.091.061.122a5.289,5.289,0,0,0,.4.456.03.03,0,0,1,.03.03c.3.335.639.669.974,1,.03.03.061.091.091.122.274.274.548.517.822.761l.091.091a9.59,9.59,0,0,0,.913.73c.03.03.091.03.122.061a27.581,27.581,0,0,0,3.1,2.1C66.7,76,74.824,77.8,82.948,77.8S99.2,76,105.374,72.41a21.784,21.784,0,0,0,7.3-6.542Z" transform="translate(72.989 78.04)" fill="#2d5c00"/>
    <path id="Trazado_3241" data-name="Trazado 3241" d="M52.183,63.363c8.52,4.929,22.334,4.929,30.824,0s8.429-12.932-.091-17.861c-8.55-4.929-22.365-4.929-30.824,0C43.6,50.431,43.663,58.434,52.183,63.363Zm2.891-15.823a1.1,1.1,0,0,1,1.521-.4l1.369.791a11.151,11.151,0,0,1,10.1.122,1.125,1.125,0,0,1-1.126,1.947,9.087,9.087,0,0,0-8.124,0c-.091.061-.213.122-.3.183h-.03a2.091,2.091,0,0,0-1,1.491c0,.578.517,1.217,1.369,1.734a9.023,9.023,0,0,0,8.094,0,11.287,11.287,0,0,1,10.346,0,4.226,4.226,0,0,1,2.465,3.651,3.3,3.3,0,0,1-.4,1.582l.852.487a1.111,1.111,0,0,1-.578,2.069.939.939,0,0,1-.548-.152l-1.248-.73-.548.365a10.334,10.334,0,0,1-5.173,1.248,10.747,10.747,0,0,1-5.173-1.248,1.132,1.132,0,0,1-.426-1.521,1.1,1.1,0,0,1,1.521-.4,9.087,9.087,0,0,0,8.124,0,3.838,3.838,0,0,0,.761-.578.03.03,0,0,1,.03-.03,1.713,1.713,0,0,0,.548-1.1c0-.578-.487-1.217-1.369-1.734a9.087,9.087,0,0,0-8.124,0,11.287,11.287,0,0,1-10.346,0,4.261,4.261,0,0,1-2.5-3.651,3.545,3.545,0,0,1,.822-2.252l-.609-.365a1.166,1.166,0,0,1-.3-1.521Z" transform="translate(88.266 82.34)" fill="#2d5c00"/>
  </g>
</svg>
