<svg xmlns="http://www.w3.org/2000/svg" width="47" height="36.928" viewBox="0 0 47 36.928">
  <g id="sobre" transform="translate(0 -54.82)">
    <g id="Grupo_22" data-name="Grupo 22" transform="translate(0 54.82)">
      <path id="Trazado_224" data-name="Trazado 224" d="M4.511,66.2q.892.629,5.377,3.737t6.872,4.786q.262.184,1.114.8t1.416,1q.564.38,1.364.852a7.913,7.913,0,0,0,1.508.707,4.156,4.156,0,0,0,1.311.236h.053a4.159,4.159,0,0,0,1.312-.236,7.921,7.921,0,0,0,1.508-.707q.8-.473,1.364-.852t1.416-1q.852-.617,1.115-.8,2.413-1.678,12.274-8.524a12.459,12.459,0,0,0,3.2-3.226A6.926,6.926,0,0,0,47,59.017a4.232,4.232,0,0,0-4.2-4.2H4.2a3.746,3.746,0,0,0-3.108,1.364A5.294,5.294,0,0,0,0,59.593a6.126,6.126,0,0,0,1.443,3.58A13.018,13.018,0,0,0,4.511,66.2Z" transform="translate(0 -54.82)" fill="#fff"/>
      <path id="Trazado_225" data-name="Trazado 225" d="M44.377,186.719q-8.6,5.822-13.061,9.049-1.495,1.1-2.426,1.718a14.969,14.969,0,0,1-2.478,1.259,7.547,7.547,0,0,1-2.885.643h-.053a7.55,7.55,0,0,1-2.885-.643,14.977,14.977,0,0,1-2.478-1.259q-.931-.616-2.426-1.718-3.541-2.6-13.035-9.049A13.892,13.892,0,0,1,0,184.437v20.824a4.04,4.04,0,0,0,1.233,2.964A4.04,4.04,0,0,0,4.2,209.458H42.8a4.209,4.209,0,0,0,4.2-4.2V184.437A14.462,14.462,0,0,1,44.377,186.719Z" transform="translate(0 -172.53)" fill="#fff"/>
    </g>
  </g>
</svg>
