<svg xmlns="http://www.w3.org/2000/svg" width="32.072" height="48" viewBox="0 0 32.072 48">
  <g id="marcador-de-mapa" transform="translate(-73.09)">
    <path id="Trazado_222" data-name="Trazado 222" d="M100.464,4.687a16.056,16.056,0,0,0-22.676,0A15.4,15.4,0,0,0,73.09,16a13.128,13.128,0,0,0,1.033,5.594L85.555,45.782a3.6,3.6,0,0,0,1.457,1.624,4.059,4.059,0,0,0,4.229,0,3.794,3.794,0,0,0,1.487-1.624l11.4-24.188A13.123,13.123,0,0,0,105.162,16,15.394,15.394,0,0,0,100.464,4.687ZM94.795,21.656A8.018,8.018,0,0,1,81.108,16a8.018,8.018,0,0,1,16.036,0A7.7,7.7,0,0,1,94.795,21.656Z" fill="#fff"/>
  </g>
</svg>
