<svg xmlns="http://www.w3.org/2000/svg" width="121.303" height="149.735" viewBox="0 0 121.303 149.735">
  <g id="mision" transform="translate(-8.66 -1.5)">
    <path id="Trazado_219" data-name="Trazado 219" d="M110.561,71.817l18.894-12.47a1.081,1.081,0,0,0,.5-1.008L129.3,45.051v-.063a.718.718,0,0,0-.094-.346c-.031-.031-.031-.063-.063-.126a.565.565,0,0,0-.157-.22l-.094-.094-.063-.063L120.04,37.9a1.509,1.509,0,0,0-.63-.22L108.7,37.336q-.992-2.456-2.267-4.912c-.787-1.48-1.543-2.834-2.393-4.125-.661-1.039-1.323-2.015-2.015-2.96-.441-.63-.913-1.228-1.386-1.858-.976-1.26-2.015-2.456-2.9-3.464s-.031-.031-.031-.031c-.22-.252-.441-.5-.693-.756L95.95,18.1l-.567-.567-.85-.85a2.037,2.037,0,0,0-.283-.252c-.535-.535-1.1-1.039-1.637-1.543-.094-.063-.157-.157-.252-.22-.063-.063-.126-.094-.189-.157A79.2,79.2,0,0,0,73.088,1.594a1.228,1.228,0,0,0-.945,0A78.914,78.914,0,0,0,55.108,12.742c-.031.031-.094.063-.126.126-.63.535-1.26,1.071-1.858,1.637-.252.22-.5.441-.756.693-.409.378-.787.724-1.165,1.134-.409.378-.787.756-1.165,1.165-.252.252-.5.535-.756.787l-.787.787-.913,1.008c-.882.976-1.889,2.173-2.866,3.432L43.33,25.338c-.252.346-.472.661-.693.976-.346.5-.724,1.039-1.071,1.574-.315.472-.6.913-.882,1.386-.157.252-.283.5-.441.756l-.157.252c-.22.346-.409.724-.63,1.071l-.63,1.134c-.315.567-.6,1.165-.913,1.795l-.22.441c-.22.441-.409.913-.6,1.354-.283.693-.567,1.354-.819,2.015l-.126.346c-.63,1.669-1.165,3.338-1.606,4.975-.063.252-.126.5-.189.724l-.283,1.228a.831.831,0,0,1-.031.22c-.189.787-.315,1.606-.472,2.425a52.622,52.622,0,0,0-.63,6.676c-.031.567-.031,1.165-.031,1.732A55.927,55.927,0,0,0,34.45,69.392c0,.063.283,1.732.913,4.472L8.975,101.827c-.031.031-.031.094-.063.126a.508.508,0,0,0-.126.22c-.031.094-.063.189-.094.315,0,.063-.031.094-.031.157v13.7a1.122,1.122,0,0,0,.63,1.008l10.077,5.133S113.521,71.66,110.561,71.817Zm.661-4.031c.063-.378.157-.724.22-1.1.094-.472.157-.945.22-1.417.063-.346.126-.693.157-1.039A57.109,57.109,0,0,0,112.356,55V54.97c-.031-1.354-.126-2.708-.283-4.031v-.157c-.063-.567-.126-1.134-.22-1.763,0-.094-.031-.189-.031-.283a.189.189,0,0,0-.031-.126A14.3,14.3,0,0,0,111.506,47l15.525-.724.567,11.494L111,68.762a6.129,6.129,0,0,0,.22-.976Zm-92.454,51.8L10.99,115.62V104.5l3.18,1.606,4.6,2.362Zm16.5-63.137c0-.567,0-1.1.031-1.669a53.667,53.667,0,0,1,.6-6.361c.126-.787.283-1.543.441-2.236a2.056,2.056,0,0,0,.063-.346l.283-1.134c.063-.22.126-.472.189-.693.409-1.543.913-3.149,1.512-4.755l.126-.315c.252-.661.5-1.291.819-1.984.189-.441.378-.85.6-1.291l.189-.409c.283-.567.567-1.134.85-1.669l.63-1.134c.189-.315.346-.661.567-.976l.157-.283c.126-.252.283-.472.409-.724.283-.441.567-.882.882-1.354.315-.5.661-1.008,1.008-1.512.189-.283.409-.567.63-.882l1.354-1.795q.9-1.181,1.795-2.173a29.362,29.362,0,0,0,48.683,0q.9,1.039,1.795,2.173c.441.6.913,1.165,1.354,1.795.661.882,1.291,1.858,1.921,2.834.882,1.386,1.606,2.645,2.3,3.936a59.653,59.653,0,0,1,2.488,5.448c.157.409.283.819.441,1.228.126.315.22.661.346,1.008.252.787.472,1.543.693,2.33l.472,1.795c.126.5.22.976.315,1.449.031.22.094.472.126.693.063.283.094.567.157.85.031.283.094.535.126.819.031.157.031.346.063.5l.189,1.417c.094.85.126,1.763.189,2.677.031.441.063.882.094,1.354a55.823,55.823,0,0,1-.5,8.849c-.22,1.637-.535,3.369-.945,5.133,0,0-3.338,21.823-8.975,33.316,0,0-5.449,14.024-27.984,16.238-31.293-3.247-20.227-13.75-20.227-13.75V76.383c0-.031-.031-.031-.031-.063a1.776,1.776,0,0,0-.126-.378c0-.031,0-.031-.031-.063a1.493,1.493,0,0,0-.315-.315l-.031-.031L41.126,69.3a1.148,1.148,0,0,0-1.449.189l-2.2,2.33c-.378-1.763-.567-2.834-.567-2.9a47.8,47.8,0,0,1-1.637-12.47Zm9.258,61.783v.031c.063,4.629,3.149,8.912,8.691,12.029a30.365,30.365,0,0,0,3.369,1.606,23.6,23.6,0,0,0,16.469,19.24,1.236,1.236,0,0,0,.441.094.924.924,0,0,0,.5-.126,23.474,23.474,0,0,0,16.469-20.122c.756-.378,1.48-.756,2.173-1.165,5.385-3.212,8.345-7.495,8.313-12.092l-.094-10.675v-.094a9.261,9.261,0,0,0-1.134-4.235C100.2,101.811,86.064,93.4,44.527,118.233ZM45,108.074c.346.441-.85,9.75-.472,10.159,1.386,1.512,6.518.094,8.628,1.291,5.353,2.992,12.281,4.5,19.24,4.5,7.337,0,14.674-1.669,20.185-4.975a20.122,20.122,0,0,0,6.078-5.385l.031,4.094c.031,3.747-2.519,7.306-7.18,10.108-.693.409-1.449.819-2.236,1.2-.063.031-.126.094-.189.126a.189.189,0,0,0-.126.031c-8.849,4.062-21.571,4.409-30.892.787h-.031a30.461,30.461,0,0,1-3.684-1.7c-4.818-2.708-7.294-5.931-7.325-9.71l-.155-.99.4-1.369,1-9.595s-1.248-.222-1.248-.254Zm-23.932.177,4.566-4.723L49.062,79.406v24.783l-.756.409h-.031L45,106.393,21.036,119.524V108.251Z" transform="translate(0)" fill="#fff"/>
    <path id="Trazado_220" data-name="Trazado 220" d="M31.457,47.614a7.624,7.624,0,0,0,6.581,3.527,13.24,13.24,0,0,0,6.518-1.984c7.558-4.409,13.7-15.052,13.7-23.743-.031-6.109-3.149-10.2-8-10.423a12.607,12.607,0,0,0-6.928,1.921c-7.558,4.377-13.73,15.021-13.7,23.712a12.528,12.528,0,0,0,1.826,6.991ZM44.462,18.927a10.837,10.837,0,0,1,5.07-1.637,10.751,10.751,0,0,1,1.134,5.2c.031,7.967-5.605,17.729-12.533,21.728a11.058,11.058,0,0,1-5.07,1.637,10.745,10.745,0,0,1-1.165-5.2C31.9,32.656,37.534,22.926,44.462,18.927Z" transform="translate(45.064 28.958)" fill="#fff"/>
  </g>
</svg>
