<svg xmlns="http://www.w3.org/2000/svg" width="48" height="48.003" viewBox="0 0 48 48.003">
  <g id="silueta-de-mango-de-telefono" transform="translate(-0.01)">
    <path id="Trazado_223" data-name="Trazado 223" d="M47.908,37.193q-.2-.614-2.591-1.807-.647-.376-1.84-1.023T41.312,33.17q-.973-.545-1.824-1.056-.136-.1-.852-.6a9.582,9.582,0,0,0-1.211-.733,2.232,2.232,0,0,0-.972-.238,2.829,2.829,0,0,0-1.7.971,16.6,16.6,0,0,0-1.875,2.114,20.554,20.554,0,0,1-1.806,2.114,2.6,2.6,0,0,1-1.568.972,2.319,2.319,0,0,1-.767-.17c-.306-.114-.539-.211-.7-.289s-.431-.239-.817-.478-.6-.369-.648-.392a35.827,35.827,0,0,1-8.012-5.932,35.808,35.808,0,0,1-5.932-8.012q-.034-.068-.392-.648t-.478-.818a7.388,7.388,0,0,1-.29-.7,2.307,2.307,0,0,1-.17-.767,2.6,2.6,0,0,1,.972-1.568,20.533,20.533,0,0,1,2.114-1.806,16.592,16.592,0,0,0,2.114-1.875,2.83,2.83,0,0,0,.972-1.7,2.226,2.226,0,0,0-.238-.972,9.477,9.477,0,0,0-.733-1.211q-.495-.716-.6-.852Q15.386,7.671,14.84,6.7T13.646,4.534Q13,3.341,12.624,2.693,11.431.307,10.817.1A1.909,1.909,0,0,0,10.1,0,11.232,11.232,0,0,0,7.7.341a13.5,13.5,0,0,0-2.335.716q-1.7.716-3.614,4.159A13.218,13.218,0,0,0,.01,11.557a13.166,13.166,0,0,0,.119,1.79,14.709,14.709,0,0,0,.426,1.96q.307,1.091.494,1.619t.7,1.892q.511,1.364.614,1.67a30.88,30.88,0,0,0,2.829,5.966,50.55,50.55,0,0,0,7.346,9.018,50.572,50.572,0,0,0,9.018,7.347,30.927,30.927,0,0,0,5.966,2.83q.307.1,1.67.614t1.892.7q.528.188,1.619.495a14.84,14.84,0,0,0,1.961.427,12.646,12.646,0,0,0,8.131-1.62q3.442-1.909,4.158-3.614a13.426,13.426,0,0,0,.716-2.335,11.207,11.207,0,0,0,.341-2.4A1.9,1.9,0,0,0,47.908,37.193Z" fill="#fff"/>
  </g>
</svg>
