<svg xmlns="http://www.w3.org/2000/svg" width="200.971" height="163.575" viewBox="0 0 200.971 163.575">
  <g id="beneficios" transform="translate(-1.5 -7.366)">
    <path id="Trazado_48" data-name="Trazado 48" d="M188.649,125.878a7.5,7.5,0,0,0,3-4.723c.926-5.106-3.128-10.883-3.766-11.521a241.638,241.638,0,0,0-30.7-26.713c4.6-10.66,7.277-21.8,7.245-32.075-.032-13.692-4.787-23.872-13.181-28.755l-.032-.032L131.266,10.473c-8.585-5.011-19.915-3.926-31.947,3-8.745,5.043-16.915,12.734-23.745,21.8-4.564-2.106-8.234-3.734-10.755-4.851-.67-6.064-3.255-10.66-7.309-13.117-.064-.032-.1-.1-.16-.128l-12.7-7.213c-4.979-2.9-11.521-2.3-18.415,1.691C12.543,19.569,1.468,38.75,1.5,54.484,1.532,62.3,4.245,68.176,9.16,71.048l12.734,7.213h.032a13.616,13.616,0,0,0,6.894,1.787,19.387,19.387,0,0,0,2.681-.223,20.1,20.1,0,0,1,1.66,12.957c-4.723,23.426,28.915,48.224,30.319,49.245,22.053,17.681,37.66,11.777,40.66,10.372l47.841,18.351a.933.933,0,0,0,.287.064,22.258,22.258,0,0,0,2.457.128c3.989,0,7.085-1.181,9.255-3.479,2.681-2.872,3.191-6.862,3.191-9.574a28.921,28.921,0,0,0,10.851,4.532,15.271,15.271,0,0,0,8.521-.415c2.809-1.053,4.6-2.681,5.33-4.915a9.085,9.085,0,0,0-.319-5.872c5.489.862,9.766-3.543,9.989-3.766a1.317,1.317,0,0,0,.223-.351c3.766-8.489-8.585-18.1-13.117-21.223Zm-2.457-14.649c.415.447,3.894,5.489,3.16,9.511a5.282,5.282,0,0,1-2.84,3.7c-3.862-2.649-25.66-17.521-38.043-25.372a108.762,108.762,0,0,0,7.755-13.979,242.113,242.113,0,0,1,29.968,26.138ZM162.128,50.846c.064,27.032-19.021,60.064-42.543,73.66-11.3,6.543-21.83,7.532-29.553,3.032a.031.031,0,0,0-.032-.032l-.064-.032a9.324,9.324,0,0,1-1.181-.766c-.1-.064-.223-.16-.319-.223-.287-.191-.574-.415-.862-.638a6.383,6.383,0,0,1-.7-.606c-5.745-5.043-8.9-13.564-8.936-24.447-.1-27.032,18.989-60.1,42.511-73.692,9.67-5.585,18.766-7.149,26.106-4.6.574.191,1.117.415,1.66.638.032,0,.064.032.1.032,8.777,3.989,13.755,13.915,13.819,27.67ZM21.734,75.325c-3.287-2.681-5.106-7.5-5.138-13.6-.032-14.968,10.532-33.287,23.553-40.787,5.936-3.415,11.489-4.085,15.67-1.915,3.415,1.787,5.713,5.426,6.543,10.372-.83-.351-1.309-.543-1.34-.543A20.077,20.077,0,0,0,43.5,29.942C30.958,36.867,24.7,55.25,24.192,57.8a20.444,20.444,0,0,0,4.085,16.755,24.207,24.207,0,0,1,2.106,3.1,11.405,11.405,0,0,1-8.649-2.33ZM35.458,93.357c.128-.415,2.681-10.021-5.362-20.234A18.187,18.187,0,0,1,26.458,58.25c.8-3.862,7.309-20.3,18.16-26.266a17.912,17.912,0,0,1,15.543-.957c.032,0,1.053.447,2.936,1.245a1.119,1.119,0,0,0,.447.191c2.426,1.053,6.064,2.649,10.628,4.787C62.936,52.888,55.6,72.229,55.628,89.24c.064,13.6,4.755,23.809,13.213,28.755l19.309,11.2a22.461,22.461,0,0,0,8.2,3.128c4.309,5.074,6.319,10.723,6.574,18.128a20.443,20.443,0,0,1-2.713.894,6.072,6.072,0,0,0,.862-2.936v-.064c0-4.755-5.3-8.617-11.809-8.617-6.415,0-11.649,3.766-11.777,8.426a63.328,63.328,0,0,1-12.543-7.947c-.351-.255-33.894-24.989-29.489-46.851ZM162.32,165.9c-2.011,2.17-5.234,3.064-9.606,2.617l-47.458-18.192c-.223-7.085-2.011-12.7-5.681-17.713.383.032.766.032,1.149.032,6.128,0,12.957-2.043,20.043-6.128.128-.064.223-.16.351-.223,26.106,11.489,41.585,27.16,43.66,29.33.16,1.4.638,6.957-2.457,10.277Zm27.383-9.511c-.511,1.5-1.819,2.681-3.926,3.447a12.719,12.719,0,0,1-7.213.319c-3.064-.67-8.649-2.33-11.872-5.84-.223-.223-15.734-17.074-43.213-29.489a76.641,76.641,0,0,0,10.787-8.585c24.989,8.17,52.213,32.043,54.255,33.862C188.873,150.676,190.6,153.74,189.7,156.389Zm10.085-10.372c-.83.8-5.043,4.468-9.734,2.33-2.17-1.947-28.883-25.309-53.936-33.926a98.723,98.723,0,0,0,11.043-13.4c13.532,8.553,38.394,25.6,38.649,25.755h.032c4.851,3.064,16.628,12.351,13.947,19.245Z" transform="translate(0 0)" fill="#fff"/>
    <path id="Trazado_49" data-name="Trazado 49" d="M84.169,17.94c-6.383-3.67-14.809-2.872-23.649,2.234C42.712,30.451,28.286,55.472,28.35,75.93c.032,10.117,3.543,17.713,9.894,21.383a17.37,17.37,0,0,0,8.84,2.266c4.564,0,9.606-1.532,14.809-4.532,17.809-10.277,32.234-35.3,32.2-55.724-.064-10.149-3.574-17.745-9.926-21.383Zm-23.458,75.1c-8.106,4.691-15.7,5.489-21.319,2.234-5.585-3.223-8.681-10.085-8.713-19.34C30.616,56.206,44.531,32.079,61.7,22.185c8.106-4.692,15.7-5.489,21.351-2.234,5.617,3.223,8.713,10.117,8.713,19.372C91.8,59.047,77.85,83.143,60.712,93.036Z" transform="translate(58.842 18.193)" fill="#fff"/>
    <path id="Trazado_50" data-name="Trazado 50" d="M74.75,25.306,61.888,30.572l-5.713-9.926a1.716,1.716,0,0,0-1.021-.8,2.011,2.011,0,0,0-1.468.223,3.191,3.191,0,0,0-1.4,1.787l-5.9,17.266a.96.96,0,0,1-.319.479L32.782,49.5a3.38,3.38,0,0,0-1.309,2.713,1.785,1.785,0,0,0,.894,1.5l9.351,5.043-2.2,16.372a1.882,1.882,0,0,0,.766,1.915,1.663,1.663,0,0,0,.926.287,1.98,1.98,0,0,0,1.021-.287,2.917,2.917,0,0,0,.766-.638L54.867,62.359c.032-.032.064-.1.1-.1l11.777.319a2.009,2.009,0,0,0,1.053-.287,3.243,3.243,0,0,0,1.532-3.1l-2.3-13.883a1.1,1.1,0,0,1,.128-.415l9.574-16.309a2.479,2.479,0,0,0,0-2.872,1.623,1.623,0,0,0-1.979-.415Z" transform="translate(65.676 27.231)" fill="#fff"/>
  </g>
</svg>
