<svg xmlns="http://www.w3.org/2000/svg" width="170.399" height="191.704" viewBox="0 0 170.399 191.704">
  <g id="grafico-financiero" transform="translate(-5 -1.499)">
    <path id="Trazado_3219" data-name="Trazado 3219" d="M27.936,52.3a2.68,2.68,0,0,0-2.647.152l-8.581,4.96A5.761,5.761,0,0,0,14,62.1l.03,12.75a1.163,1.163,0,0,0,.548.974,1.24,1.24,0,0,0,.548.152,1.139,1.139,0,0,0,.548-.152l12.9-7.455a1.163,1.163,0,0,0,.548-.974l-.03-12.75A2.53,2.53,0,0,0,27.936,52.3Z" transform="translate(18.386 103.202)" fill="#2d5c00"/>
    <path id="Trazado_3220" data-name="Trazado 3220" d="M12.627,37.384a3.357,3.357,0,0,0,1.734.456,5.321,5.321,0,0,0,2.617-.761,11.042,11.042,0,0,0,5.082-8.794,4.157,4.157,0,0,0-1.887-3.864,4.235,4.235,0,0,0-4.321.335,10.965,10.965,0,0,0-5.082,8.794,4.091,4.091,0,0,0,1.856,3.834Zm4.321-10.772a3.088,3.088,0,0,1,1.461-.456,1.109,1.109,0,0,1,.639.152,2.207,2.207,0,0,1,.791,1.978,9.012,9.012,0,0,1-3.956,6.877,2.306,2.306,0,0,1-2.13.335,2.174,2.174,0,0,1-.761-1.947A8.858,8.858,0,0,1,16.948,26.613Z" transform="translate(11.787 45.91)" fill="#2d5c00"/>
    <path id="Trazado_3221" data-name="Trazado 3221" d="M17.376,34.644a3.357,3.357,0,0,0,1.734.456,5.321,5.321,0,0,0,2.617-.761,11.042,11.042,0,0,0,5.082-8.794,4.157,4.157,0,0,0-1.887-3.864,4.235,4.235,0,0,0-4.321.335A11.042,11.042,0,0,0,15.52,30.81,4.152,4.152,0,0,0,17.376,34.644ZM21.7,23.873a3.276,3.276,0,0,1,1.491-.487,1.415,1.415,0,0,1,.639.152,2.174,2.174,0,0,1,.761,1.947,8.877,8.877,0,0,1-3.956,6.877,2.306,2.306,0,0,1-2.13.335,2.207,2.207,0,0,1-.791-1.978A8.9,8.9,0,0,1,21.7,23.873Z" transform="translate(21.491 40.313)" fill="#2d5c00"/>
    <path id="Trazado_3222" data-name="Trazado 3222" d="M22.137,31.916a3.357,3.357,0,0,0,1.734.456,5.381,5.381,0,0,0,2.617-.791,11.042,11.042,0,0,0,5.082-8.794,4.157,4.157,0,0,0-1.887-3.864,4.3,4.3,0,0,0-4.321.3,11.051,11.051,0,0,0-5.082,8.824A4.111,4.111,0,0,0,22.137,31.916Zm4.29-10.772a2.14,2.14,0,0,1,2.1-.3,2.111,2.111,0,0,1,.791,1.947,8.877,8.877,0,0,1-3.956,6.877,2.2,2.2,0,0,1-2.13.3,2.111,2.111,0,0,1-.791-1.947A9.008,9.008,0,0,1,26.427,21.145Z" transform="translate(31.214 34.673)" fill="#2d5c00"/>
    <path id="Trazado_3223" data-name="Trazado 3223" d="M48.716,27.519a2.682,2.682,0,0,0-2.647.152l-8.581,4.96a5.8,5.8,0,0,0-2.708,4.686l.152,51.576a1.075,1.075,0,0,0,.548.943,1.24,1.24,0,0,0,.548.152,1.139,1.139,0,0,0,.548-.152l12.9-7.455a1.163,1.163,0,0,0,.548-.974l-.091-51.546A2.571,2.571,0,0,0,48.716,27.519Z" transform="translate(60.836 52.58)" fill="#2d5c00"/>
    <path id="Trazado_3224" data-name="Trazado 3224" d="M41.806,40.439a2.682,2.682,0,0,0-2.647.152l-8.581,4.96a5.761,5.761,0,0,0-2.708,4.686L27.961,74.7a1.075,1.075,0,0,0,.548.943,1.24,1.24,0,0,0,.548.152,1.139,1.139,0,0,0,.548-.152l12.9-7.455a1.163,1.163,0,0,0,.548-.974l-.091-24.464a2.452,2.452,0,0,0-1.156-2.313Z" transform="translate(46.72 78.974)" fill="#2d5c00"/>
    <path id="Trazado_3225" data-name="Trazado 3225" d="M34.846,39.279a2.682,2.682,0,0,0-2.647.152l-8.581,4.96a5.761,5.761,0,0,0-2.708,4.686l.122,40.2a1.075,1.075,0,0,0,.548.943,1.24,1.24,0,0,0,.548.152,1.139,1.139,0,0,0,.548-.152l12.9-7.455a1.163,1.163,0,0,0,.548-.974L36,41.592a2.452,2.452,0,0,0-1.156-2.313Z" transform="translate(32.502 76.604)" fill="#2d5c00"/>
    <path id="Trazado_3226" data-name="Trazado 3226" d="M57.24,66.484,83.2,25.314c.03,1.278.061,2.982.122,5.264.061,2.252.091,4.108.091,4.2a1.108,1.108,0,0,0,.913,1.278c.061,0,.122.03.183.03a1.137,1.137,0,0,0,1.1-.913c.03-.152.03-.152-.061-4.625-.061-3.347-.183-8.429-.152-8.794v-.03a1.466,1.466,0,0,0,0-.365c0-.03-.03-.061-.03-.091a1.081,1.081,0,0,0-.122-.274c0-.03-.03-.03-.03-.061a.926.926,0,0,0-.243-.243.03.03,0,0,1-.03-.03l-.03-.03c-.03,0-.03,0-.061-.03a.911.911,0,0,0-.3-.122c-.03,0-.061-.03-.091-.03a.742.742,0,0,0-.365,0c-.03,0-.03,0-.061.03-.061.03-.152.03-.213.091L71.237,27.048a1.109,1.109,0,0,0,1,1.978L81.187,24.4,55.78,64.688,38.192,62.345a1.463,1.463,0,0,0-1,.183,2.1,2.1,0,0,0-.7.669L13.94,97.277a1.154,1.154,0,0,0,.3,1.552,1.1,1.1,0,0,0,.609.183,1.113,1.113,0,0,0,.913-.487L38.192,64.6,56.175,67a1.1,1.1,0,0,0,1.065-.517Z" transform="translate(17.898 38.659)" fill="#2d5c00"/>
    <path id="Trazado_3227" data-name="Trazado 3227" d="M165.875,124.464c-11.259-6.481-28.907-6.968-41.109-1.491l-.243-89.034-.061-18.926c0-3.012-1.1-5.295-3.012-6.481-.03,0-.03-.03-.061-.061L110.617,2.233c-2.008-1.156-4.595-.943-7.272.609L14.189,54.327C9.108,57.248,5,64.4,5,70.271l.3,109.421c0,3.043,1.1,5.386,3.073,6.542l10.772,6.238a5.571,5.571,0,0,0,2.8.73,8.823,8.823,0,0,0,4.443-1.369l86.052-49.659v3.53a30.769,30.769,0,0,0-2.83,1.461c-5.994,3.5-9.311,8.185-9.372,13.236v.03l-.03,13.967c0,5.142,3.347,9.92,9.524,13.48,6.086,3.5,14.058,5.264,22.03,5.264s15.945-1.765,22-5.295c6.025-3.5,9.342-8.216,9.372-13.3l.03-7.972c.974-.456,1.917-.913,2.83-1.43,6.025-3.5,9.342-8.216,9.372-13.3l.03-13.906v-.03c0-5.142-3.378-9.92-9.524-13.449ZM26.087,62.482l89.155-51.455a6.709,6.709,0,0,1,3.408-1.035,3.3,3.3,0,0,1,1.643.426c1.278.73,1.978,2.373,1.978,4.595l.061,18.288L114.3,37.926a.191.191,0,0,1-.183,0c-.03,0-.091-.061-.122-.122l-1.369-4.017a3.072,3.072,0,0,0-4.443-1.674l-22.334,12.9a6.367,6.367,0,0,0-3.012,4.017L81.345,55.24a4.862,4.862,0,0,1-2.282,3.073L18.023,93.488l-.03-16.979C17.963,71.367,21.614,65.068,26.087,62.482Zm-.761,127.434c-1.978,1.126-3.773,1.369-5.051.609l-.03-.03C19,189.764,18.3,188.121,18.3,185.9l-.274-89.855L80.158,60.2a7.185,7.185,0,0,0,3.317-4.473l1.491-6.207A4.057,4.057,0,0,1,86.913,46.9L109.248,34a.909.909,0,0,1,.73-.061.833.833,0,0,1,.517.548l1.369,4.017a2.371,2.371,0,0,0,1.461,1.491,2.47,2.47,0,0,0,2.069-.152l6.938-3.986.243,88.243c-.243.122-.487.243-.7.365-6.025,3.5-9.342,8.216-9.372,13.267v1.856Zm85.413-40.835c.548-.3,1.126-.609,1.7-.913v3.56a15.473,15.473,0,0,0,.122,1.674,9.677,9.677,0,0,0-3.286,7.942c.365,3.408,2.769,6.573,6.816,8.916a34.612,34.612,0,0,0,31.128.091,48.886,48.886,0,0,0,9.737-1.552,20.162,20.162,0,0,1-4.29,3.195c-11.472,6.664-30.215,6.664-41.778,0-5.416-3.134-8.4-7.212-8.4-11.5-.03-4.26,2.921-8.307,8.246-11.411Zm50.177,25.5c0,4.26-2.952,8.277-8.246,11.38-11.472,6.664-30.246,6.664-41.809,0-5.447-3.134-8.429-7.242-8.4-11.563v-7.029a21.616,21.616,0,0,0,7.333,6.542c6.086,3.53,14.058,5.264,22.03,5.264s15.945-1.765,22-5.264a18.816,18.816,0,0,0,6.877-6.3,2.1,2.1,0,0,0,.243-.091Zm12.232-22.7c0,4.26-2.952,8.307-8.246,11.38a41.2,41.2,0,0,1-18.074,4.929h-.061c-8.459.456-17.192-1.187-23.643-4.929-5.447-3.134-8.429-7.242-8.4-11.532v-7a.807.807,0,0,0,.152.183c.213.335.487.639.73.974.213.243.4.517.609.73q.456.5,1,1c.213.213.426.426.669.639.4.365.852.7,1.308,1.065.213.152.4.335.609.487a23.147,23.147,0,0,0,2.221,1.43,31.4,31.4,0,0,0,4.9,2.282c.4.152.791.274,1.187.426.487.152.974.335,1.461.517.609.183,1.248.335,1.917.517.274.061.548.152.852.243,11.259,2.647,24.617,1.308,33.715-3.956.761-.456,1.491-.913,2.191-1.4.213-.152.4-.3.578-.456a11.1,11.1,0,0,0,1.308-1.065,5.748,5.748,0,0,0,.609-.609c.335-.335.7-.639,1-1,.183-.213.365-.456.548-.7.274-.335.548-.669.791-1a.42.42,0,0,0,.091-.122Zm-.03-13.206c-.03.274-.03.548-.061.852a3.677,3.677,0,0,1-.152.548,6.159,6.159,0,0,1-.274,1,2.294,2.294,0,0,1-.183.4c-.152.365-.3.761-.487,1.126-.061.091-.122.213-.183.3a9.222,9.222,0,0,1-.73,1.156,1.968,1.968,0,0,1-.243.274,10.873,10.873,0,0,1-.943,1.126,5.443,5.443,0,0,1-.426.4c-.3.335-.639.639-1,.974a9.6,9.6,0,0,1-.882.669c-.243.183-.487.4-.761.578a22.389,22.389,0,0,1-1.887,1.217c-11.472,6.664-30.246,6.664-41.809,0-.669-.4-1.308-.791-1.917-1.217a4.354,4.354,0,0,1-.456-.335,12.893,12.893,0,0,1-1.217-.943c-.243-.213-.456-.426-.669-.639a8.8,8.8,0,0,1-.761-.73c-.243-.243-.456-.548-.669-.791l-.548-.639a8.143,8.143,0,0,1-.548-.852,7.28,7.28,0,0,1-.4-.639,7.757,7.757,0,0,1-.4-.882c-.091-.213-.213-.426-.3-.639a6.974,6.974,0,0,1-.213-.852,6.4,6.4,0,0,1-.183-.73c-.03-.274-.03-.548-.061-.791,0-.274-.061-.548-.061-.822,0-4.26,2.921-8.307,8.246-11.411,5.751-3.317,13.3-4.99,20.843-4.99,7.577,0,15.153,1.674,20.935,4.99,5.416,3.134,8.4,7.212,8.4,11.5a3.437,3.437,0,0,1,0,.791Z" transform="translate(0 0)" fill="#2d5c00"/>
    <path id="Trazado_3228" data-name="Trazado 3228" d="M81.376,45.633c-8.672-4.99-22.73-4.99-31.341,0-4.351,2.526-6.755,5.964-6.755,9.676,0,3.743,2.434,7.181,6.877,9.737a32.1,32.1,0,0,0,15.671,3.773c5.66,0,11.35-1.248,15.64-3.773,4.351-2.526,6.755-5.994,6.755-9.676C88.223,51.658,85.789,48.189,81.376,45.633ZM77.269,60.756a1.1,1.1,0,0,1-.974.548,1.139,1.139,0,0,1-.548-.152l-1-.578c-.122.091-.274.183-.426.274a10.057,10.057,0,0,1-9.129,0A1.125,1.125,0,0,1,66.314,58.9a7.606,7.606,0,0,0,6.877,0,1.881,1.881,0,0,0,.609-.456c.03-.03.061-.03.061-.061a1.212,1.212,0,0,0,.426-.852c0-.456-.4-.943-1.1-1.369a7.67,7.67,0,0,0-6.907,0,9.812,9.812,0,0,1-9.1,0,3.891,3.891,0,0,1-2.221-3.286,3.224,3.224,0,0,1,.639-1.917l-.4-.243a1.125,1.125,0,0,1,1.126-1.947l1.126.639a9.892,9.892,0,0,1,8.824.152,1.117,1.117,0,0,1-1.1,1.947,7.606,7.606,0,0,0-6.877,0c-.7.4-1.1.882-1.1,1.339s.426.943,1.126,1.369a7.606,7.606,0,0,0,6.877,0,9.874,9.874,0,0,1,9.129,0A3.952,3.952,0,0,1,76.569,57.5a2.76,2.76,0,0,1-.3,1.308l.609.365a1.188,1.188,0,0,1,.4,1.582Z" transform="translate(78.2 82.513)" fill="#2d5c00"/>
  </g>
</svg>
