<svg xmlns="http://www.w3.org/2000/svg" width="157.035" height="191.704" viewBox="0 0 157.035 191.704">
  <g id="seguridad-del-dinero" transform="translate(-7.2 -1.51)">
    <path id="Trazado_3242" data-name="Trazado 3242" d="M123.163,22.295a1.072,1.072,0,0,0-.944-.274,32.038,32.038,0,0,1-5.3.487c-5.327,0-15.128-1.674-21.186-13a1.11,1.11,0,0,0-1.309-.548A106.972,106.972,0,0,0,74.187,18,142.219,142.219,0,0,0,48.01,37.819a1.38,1.38,0,0,0-.335.578C43.5,58.213,33.125,74.163,16.749,85.79a1.118,1.118,0,0,0-.457.974c3.622,49.22,20.242,75.945,49.433,79.476h.122a1.125,1.125,0,0,0,.883-.426C99.908,123.991,118.506,77.328,123.5,23.178a.9.9,0,0,0-.335-.883ZM47.918,101.467c-.03-16.254,11.415-36.1,25.569-44.258a23.051,23.051,0,0,1,11.2-3.47,12.219,12.219,0,0,1,6.3,1.613C95.555,58,98.082,63.631,98.112,71.21c.03,16.254-11.415,36.131-25.569,44.258-6.666,3.866-12.876,4.5-17.472,1.857-4.6-2.618-7.153-8.249-7.153-15.859Z" transform="translate(18.577 15.133)" fill="#2d5c00"/>
    <path id="Trazado_3243" data-name="Trazado 3243" d="M41.617,61.622a1.1,1.1,0,0,0,.609.183.67.67,0,0,0,.244-.03,1.014,1.014,0,0,0,.7-.517L61.981,30.636a1.107,1.107,0,1,0-1.887-1.157L41.891,59.1,31.3,51.943A1.119,1.119,0,1,0,30.05,53.8Z" transform="translate(45.698 56.072)" fill="#2d5c00"/>
    <path id="Trazado_3244" data-name="Trazado 3244" d="M164.235,151.573v-.03c0-4.627-3.044-8.919-8.553-12.084-7.914-4.566-19.42-5.814-29.252-3.744,16.528-34.213,25.782-72.293,27.486-113.233v-.03c0-.03-.03-.061-.03-.091a.793.793,0,0,0-.122-.457l-.03-.03a.968.968,0,0,0-.335-.365h-.03l-16.559-9.68a1.086,1.086,0,0,0-1.1,0,44.473,44.473,0,0,1-13.119,5.053,37.043,37.043,0,0,1-1.431-4.87c0-.03,0-.03-.03-.03a1.63,1.63,0,0,0-.152-.335c0-.03-.03-.03-.03-.061a.81.81,0,0,0-.335-.3L104.026,1.661a1.033,1.033,0,0,0-.791-.122A111.626,111.626,0,0,0,70.817,14.233,155.788,155.788,0,0,0,40.074,37.975a.15.15,0,0,1-.03.091c-.03.03-.03.061-.061.091a1.317,1.317,0,0,0-.152.365c0,.03-.03.03-.03.061C36.361,59.009,25.585,74.867,7.748,85.7c-.03,0-.03.03-.061.061a.775.775,0,0,0-.335.365c-.03.061-.03.122-.061.183a1.372,1.372,0,0,0-.091.335v.061c2.252,45.506,14.854,75.215,37.379,88.3l16.559,9.619a.811.811,0,0,0,.365.091,61.267,61.267,0,0,0,27.639,7.792H89.2a1.133,1.133,0,0,0,.852-.4,291.226,291.226,0,0,0,17.715-23.864l-.03,8.1c0,4.627,3.013,8.949,8.553,12.145,5.449,3.135,12.6,4.718,19.755,4.718s14.276-1.583,19.694-4.718,8.4-7.4,8.432-11.993l.03-12.48c0-.061-.03-.122-.03-.183Zm-2.222,6.605-.03,5.844c0,3.744-2.618,7.336-7.305,10.075-5.114,2.983-11.841,4.444-18.568,4.444s-13.484-1.492-18.629-4.444c-4.809-2.77-7.458-6.423-7.458-10.227,0-.061-.03-.122-.03-.183l.03-5.662c.152.213.335.4.487.609a10.222,10.222,0,0,0,.731.883l.457.457c.335.335.639.67,1,.974.152.122.335.244.487.365.4.335.791.639,1.218.974.609.426,1.248.852,1.948,1.248a29.4,29.4,0,0,0,3.409,1.644c.335.152.639.274.974.426.3.122.609.213.913.3.487.183.974.335,1.461.487.274.091.548.152.791.213.548.152,1.126.3,1.674.457.122.03.244.03.335.061.731.152,1.461.3,2.222.457a3.391,3.391,0,0,0,.517.061c1.552.244,3.135.426,4.748.517a6.623,6.623,0,0,1,.791.03c.609.03,1.248.061,1.857.061.4,0,.791-.03,1.187-.03.487,0,1,0,1.492-.03l1.187-.091c.487-.03.974-.061,1.461-.122.517-.061,1.035-.152,1.552-.213.365-.061.7-.091,1.065-.152.609-.091,1.218-.244,1.826-.365.244-.061.487-.091.731-.152q1-.228,2.009-.548c.152-.03.3-.091.457-.122l1.37-.457c.335-.122.67-.213,1-.335l.457-.183a27.484,27.484,0,0,0,3.927-1.887c.67-.4,1.309-.791,1.918-1.218.213-.152.4-.3.609-.457.365-.274.731-.548,1.065-.852.244-.213.457-.426.67-.639.244-.244.517-.487.761-.761.213-.244.4-.487.609-.731a6.449,6.449,0,0,0,.609-.731Zm-7.427-16.8c4.779,2.77,7.427,6.392,7.458,10.167,0,.152-.03.274-.03.426-.03.335-.03.67-.091,1-.03.152-.091.274-.122.426-.061.3-.152.639-.244.944-.061.122-.122.244-.183.4a5.269,5.269,0,0,1-.426.944l-.183.274a9.208,9.208,0,0,1-.639,1,1.325,1.325,0,0,1-.183.213c-.274.335-.548.7-.852,1.035a1.837,1.837,0,0,0-.244.244,9.923,9.923,0,0,1-1,.944c-.061.061-.152.122-.213.183-.4.335-.791.639-1.248.974a17.574,17.574,0,0,1-1.674,1.065c-10.227,5.936-26.938,5.936-37.227,0-.609-.335-1.157-.7-1.7-1.065a7.41,7.41,0,0,1-.761-.609l-.731-.548c-.274-.244-.517-.487-.791-.761-.152-.152-.335-.3-.487-.457a8.066,8.066,0,0,1-.639-.791c-.122-.152-.274-.335-.4-.487a6.88,6.88,0,0,1-.487-.791c-.122-.183-.244-.365-.335-.517-.122-.244-.213-.487-.335-.761-.091-.213-.183-.4-.274-.609-.091-.244-.122-.487-.183-.7a5.475,5.475,0,0,1-.183-.67c-.03-.213-.03-.457-.061-.7a5.909,5.909,0,0,1-.061-.731c0-3.774,2.587-7.336,7.336-10.075,5.114-2.983,11.841-4.444,18.568-4.444s13.484,1.492,18.629,4.475Zm-47.211,23.56a286.29,286.29,0,0,1-18.629,25.356,59.549,59.549,0,0,1-26.178-7.336,1.05,1.05,0,0,0-.274-.244c-20.3-11.78-32.265-37.744-35.644-77.163-.061-.639-.122-1.278-.152-1.948-.061-.731-.122-1.492-.152-2.222-.091-1.187-.152-2.374-.213-3.561-.03-.335-.03-.639-.061-.974.487-.3.974-.639,1.431-.944.517-.335,1.065-.67,1.583-1.035l1.644-1.187c.517-.365,1-.731,1.492-1.1.548-.4,1.035-.822,1.552-1.248.487-.365.974-.761,1.431-1.157.517-.426,1-.883,1.492-1.309.457-.4.913-.791,1.339-1.187.487-.457.944-.913,1.4-1.37.426-.426.852-.822,1.248-1.248.457-.487.883-.974,1.339-1.461.4-.426.791-.852,1.157-1.278.426-.517.852-1.035,1.248-1.552.335-.426.7-.852,1.065-1.309.426-.548.822-1.126,1.218-1.674.3-.426.639-.852.944-1.278.4-.609.791-1.218,1.187-1.857.274-.426.548-.822.791-1.248.487-.791.913-1.613,1.37-2.435.152-.244.3-.517.426-.761.578-1.1,1.1-2.192,1.613-3.318.152-.335.274-.639.426-.974.365-.822.7-1.613,1.035-2.435.183-.426.3-.883.487-1.309.274-.731.548-1.461.791-2.222l.457-1.461c.213-.731.457-1.431.67-2.192.152-.517.274-1.035.4-1.552l.548-2.192c.122-.548.213-1.1.335-1.644.122-.67.274-1.339.4-2.009,1-.974,2.009-1.918,3.013-2.861a5.844,5.844,0,0,1,.457-.426,155.36,155.36,0,0,1,22.1-17.168c.213-.122.426-.274.639-.426.244-.152.517-.3.761-.457,1.035-.639,2.039-1.248,3.074-1.857.517-.3,1.035-.578,1.522-.852.761-.426,1.522-.852,2.313-1.278.213-.122.426-.213.639-.335q1.644-.868,3.287-1.644c.152-.091.335-.152.487-.244,1.035-.457,2.161-1,3.318-1.492l.639-.274c1.1-.457,2.161-.913,3.257-1.339.335-.122.639-.244.974-.365.974-.365,1.948-.731,2.922-1.065.457-.152.913-.3,1.4-.457.822-.274,1.674-.548,2.5-.822.609-.213,1.248-.365,1.857-.548.67-.183,1.339-.4,2.009-.578.791-.213,1.583-.4,2.374-.578.365-.091.761-.183,1.126-.274a34.715,34.715,0,0,0,1.644,5.022,16.521,16.521,0,0,0,.944,1.948c.061.091.091.183.152.274a17.645,17.645,0,0,0,1.1,1.8l.03.03a14.549,14.549,0,0,0,1.187,1.522c0,.03.061.091.091.152a17.7,17.7,0,0,0,1.309,1.309c.061.061.122.091.183.152a9.9,9.9,0,0,0,1.278.944,1.068,1.068,0,0,0,.244.152.158.158,0,0,0,.122.061,1.259,1.259,0,0,0,.335.183c.274.152.548.3.852.457.061.03.091.03.152.061l.183.091c.091.03.213.091.3.122.061.03.091.03.152.061a1.484,1.484,0,0,0,.213.091l.244.091c.457.183.913.3,1.4.457a9.782,9.782,0,0,0,1.1.244c.335.061.7.122.974.152a6.246,6.246,0,0,0,1.126.091c.335,0,.639.03,1,.03.213,0,.4-.03.609-.03h.03c3.8-.122,8.1-1.309,13.028-3.592.335-.152.7-.335,1.065-.487.3-.152.639-.3.944-.487a.811.811,0,0,0,.4-.152c-1.918,40.545-11.323,78.259-27.973,112.076a31.514,31.514,0,0,0-7.4,3.074c-5.418,3.135-8.4,7.4-8.432,11.963v.03l-.03,12.48c0,.152.03.3.03.426v.244a.821.821,0,0,0-.457.335ZM161.982,176.5c0,3.744-2.618,7.336-7.305,10.075-10.228,5.936-26.938,5.936-37.227,0-4.809-2.77-7.458-6.423-7.458-10.228l.03-5.814a19.6,19.6,0,0,0,6.331,5.479c5.449,3.135,12.6,4.718,19.755,4.718h.03c7.153,0,14.306-1.583,19.724-4.718a19.4,19.4,0,0,0,6.179-5.388Z" transform="translate(0 0)" fill="#2d5c00"/>
    <path id="Trazado_3245" data-name="Trazado 3245" d="M49.09,67.712A28.609,28.609,0,0,0,63.152,71.09a28.49,28.49,0,0,0,14.032-3.379c3.927-2.283,6.088-5.388,6.088-8.736a8.226,8.226,0,0,0-1.613-4.809,14.238,14.238,0,0,0-4.6-3.988c-7.762-4.5-20.394-4.5-28.1,0-3.927,2.283-6.088,5.418-6.088,8.766C42.91,62.293,45.132,65.429,49.09,67.712Zm2.983-14.885a1.123,1.123,0,0,1,1.522-.4l1.157.67a10.025,10.025,0,0,1,8.888.122,1.1,1.1,0,1,1-1.1,1.918,7.8,7.8,0,0,0-6.971,0c-.7.426-1.1.913-1.1,1.37s.426.974,1.126,1.37a7.8,7.8,0,0,0,6.971,0,10,10,0,0,1,9.193,0A3.935,3.935,0,0,1,73.989,61.2a2.883,2.883,0,0,1-.335,1.309l.67.4a1.1,1.1,0,0,1,.4,1.522,1.064,1.064,0,0,1-.974.548,1.24,1.24,0,0,1-.548-.152l-1.065-.609a4.455,4.455,0,0,1-.4.274,9.942,9.942,0,0,1-9.193,0,1.125,1.125,0,0,1,1.126-1.948,7.8,7.8,0,0,0,6.971,0,1.821,1.821,0,0,0,1.1-1.37c0-.487-.426-.974-1.126-1.4a7.8,7.8,0,0,0-6.971,0,10,10,0,0,1-9.193,0,3.929,3.929,0,0,1-2.252-3.287,3.349,3.349,0,0,1,.67-1.948l-.426-.244a1.037,1.037,0,0,1-.365-1.461Z" transform="translate(72.926 92.567)" fill="#2d5c00"/>
  </g>
</svg>
