<svg xmlns="http://www.w3.org/2000/svg" width="156.037" height="176.37" viewBox="0 0 156.037 176.37">
  <g id="calculo-financiero" transform="translate(-5.13 -1.508)">
    <path id="Trazado_51" data-name="Trazado 51" d="M21.042,62.449l5.124,3h.028A2.071,2.071,0,0,0,27.2,65.7a2.477,2.477,0,0,0,1.344-.392l11.927-6.888A5.037,5.037,0,0,0,42.825,54.3L42.8,40.61a2.337,2.337,0,0,0-1.008-2.044l-.028-.028-5.124-3a2.292,2.292,0,0,0-2.38.112L22.33,42.542a5.085,5.085,0,0,0-2.38,4.088l.028,13.691a2.252,2.252,0,0,0,1.064,2.128ZM28.49,47.329l11.927-6.888a.027.027,0,0,0,.028-.028,1.169,1.169,0,0,1,.252-.084,1.168,1.168,0,0,1,.056.308l.028,13.691a3.068,3.068,0,0,1-1.344,2.352L27.51,63.569a1.527,1.527,0,0,1-.28.112A.282.282,0,0,1,27.2,63.6v-.2l-.028-13.691a2.9,2.9,0,0,1,1.316-2.38Z" transform="translate(26.674 60.748)" fill="#fff"/>
    <path id="Trazado_52" data-name="Trazado 52" d="M12.254,57.532l5.152,3a2.043,2.043,0,0,0,.98.252,2.929,2.929,0,0,0,1.372-.392L31.685,53.5a5.065,5.065,0,0,0,2.38-4.116l-.028-13.691a2.275,2.275,0,0,0-1.008-2.044L33,33.621l-5.152-3a2.278,2.278,0,0,0-2.352.14L13.57,37.653a5.065,5.065,0,0,0-2.38,4.116l.028,13.691a2.283,2.283,0,0,0,1.036,2.072ZM19.73,42.413l11.927-6.888a.491.491,0,0,1,.28-.112,2.23,2.23,0,0,1,.028.308l.028,13.719a3.062,3.062,0,0,1-1.344,2.324L18.722,58.652c-.168.084-.28.112-.308.14v-.28l-.028-13.691a3.05,3.05,0,0,1,1.344-2.408Z" transform="translate(10.907 51.945)" fill="#fff"/>
    <path id="Trazado_53" data-name="Trazado 53" d="M20.976,52.494l5.1,2.968H26.1l.028.028a2.071,2.071,0,0,0,1.008.252,2.742,2.742,0,0,0,1.344-.392l11.927-6.888a5.065,5.065,0,0,0,2.38-4.116l-.028-13.691a2.31,2.31,0,0,0-1.036-2.072l-5.152-3a2.258,2.258,0,0,0-2.324.14L22.292,32.615A5.106,5.106,0,0,0,19.94,36.73l.028,13.691a2.156,2.156,0,0,0,1.008,2.072Zm7.448-15.119,11.955-6.888a.491.491,0,0,1,.28-.112,2.231,2.231,0,0,1,.028.308L40.715,44.4a3.1,3.1,0,0,1-1.344,2.324L27.444,53.614a2.274,2.274,0,0,0-.28.14,2.231,2.231,0,0,1-.028-.308l-.028-13.691A3.047,3.047,0,0,1,28.424,37.374Z" transform="translate(26.656 42.872)" fill="#fff"/>
    <path id="Trazado_54" data-name="Trazado 54" d="M12.292,67.5l5.152,3a2.071,2.071,0,0,0,1.008.252,2.477,2.477,0,0,0,1.344-.392L31.723,63.47a5.065,5.065,0,0,0,2.38-4.116l-.028-13.691a2.335,2.335,0,0,0-.98-2.016l-.084-.084-5.152-3a2.31,2.31,0,0,0-2.352.14L13.58,47.595a5.085,5.085,0,0,0-2.38,4.088l.028,13.691A2.494,2.494,0,0,0,12.292,67.5Zm7.476-15.147L31.7,45.467h.028c.14-.084.224-.084.252-.112a1.168,1.168,0,0,1,.056.308l.028,13.691a3.1,3.1,0,0,1-1.372,2.352L18.76,68.594a1,1,0,0,1-.308.112,2.23,2.23,0,0,1-.028-.308L18.4,54.706a3.322,3.322,0,0,1,1.372-2.352Z" transform="translate(10.925 69.834)" fill="#fff"/>
    <path id="Trazado_55" data-name="Trazado 55" d="M33.153,53.6a.386.386,0,0,0-.112-.084l-5.152-3a2.3,2.3,0,0,0-2.352.112L13.61,57.524a5.249,5.249,0,0,0-2.38,4.116l.028,13.691A2.247,2.247,0,0,0,12.294,77.4l5.152,3h.028a2.071,2.071,0,0,0,1.008.252,2.477,2.477,0,0,0,1.344-.392l11.927-6.888a5.065,5.065,0,0,0,2.38-4.116L34.1,55.564a2.352,2.352,0,0,0-.952-1.96ZM30.745,71.636,18.818,78.523a1.527,1.527,0,0,1-.28.112c-.028-.028-.056-.112-.056-.308l-.056-13.663A3.1,3.1,0,0,1,19.8,62.312l11.927-6.888a.747.747,0,0,1,.28-.112c.028.028.056.112.056.308l.028,13.691A3.016,3.016,0,0,1,30.745,71.636Z" transform="translate(10.979 87.735)" fill="#fff"/>
    <path id="Trazado_56" data-name="Trazado 56" d="M41.819,48.545c-.028,0-.028-.028-.056-.056l-5.152-3.024a2.283,2.283,0,0,0-2.352.14L22.332,52.493a5.106,5.106,0,0,0-2.352,4.116L20.008,70.3a2.241,2.241,0,0,0,1.064,2.072l5.124,3h.028a2.1,2.1,0,0,0,1.008.28,2.742,2.742,0,0,0,1.344-.392L40.5,68.369a5.134,5.134,0,0,0,2.38-4.116l-.028-13.691a2.479,2.479,0,0,0-1.036-2.016ZM39.467,66.6,27.54,73.492a.986.986,0,0,1-.28.112V73.3l-.028-13.719a3.062,3.062,0,0,1,1.344-2.324L40.5,50.365a.986.986,0,0,1,.28-.112.57.57,0,0,1,.056.308l.028,13.691A3.394,3.394,0,0,1,39.467,66.6Z" transform="translate(26.728 78.655)" fill="#fff"/>
    <path id="Trazado_57" data-name="Trazado 57" d="M29.706,47.426l5.152,3.024a2.071,2.071,0,0,0,1.008.252,2.843,2.843,0,0,0,1.372-.392l11.927-6.888a5.065,5.065,0,0,0,2.38-4.116l-.028-13.691a2.343,2.343,0,0,0-1.036-2.072l-5.152-3a2.31,2.31,0,0,0-2.352.14L31.05,27.575a5.134,5.134,0,0,0-2.38,4.116L28.7,45.41a2.105,2.105,0,0,0,1.008,2.016Zm7.476-15.119,11.927-6.888c.028,0,.056-.028.084-.028.112-.056.2-.056.224-.084a1.168,1.168,0,0,1,.056.308L49.5,39.334a3.046,3.046,0,0,1-1.372,2.324L36.2,48.546c-.168.084-.28.112-.308.14a2.231,2.231,0,0,1-.028-.308l-.028-13.691a3.2,3.2,0,0,1,1.344-2.38Z" transform="translate(42.369 33.801)" fill="#fff"/>
    <path id="Trazado_58" data-name="Trazado 58" d="M79.891,29.665l-.028-17.891a3.778,3.778,0,0,0-1.624-3.416,3.642,3.642,0,0,0-3.584.084,1.881,1.881,0,0,0-.336.168L15.69,42.488a9.794,9.794,0,0,0-4.48,7.784l.028,17.891a3.574,3.574,0,0,0,.056.812v.056a3.458,3.458,0,0,0,1.792,2.66A3.276,3.276,0,0,0,14.458,72a4.669,4.669,0,0,0,2.3-.672l58.6-33.85a9.758,9.758,0,0,0,4.536-7.812Zm-5.824-1.68a7.769,7.769,0,0,1-3.5,5.992L13.282,67.1l-.028-16.827a7.835,7.835,0,0,1,3.472-6.02L74.039,11.13l.028,16.855h0Z" transform="translate(10.943 11.551)" fill="#fff"/>
    <path id="Trazado_59" data-name="Trazado 59" d="M152.347,102.673c-11.311-6.524-29.651-6.524-40.906,0-5.6,3.248-8.68,7.616-8.708,12.319v.028l-.028,15.315c-1.512-.084-3.024-.112-4.536-.056a14.673,14.673,0,0,0,.98-5.152L98.87,15.009c0-2.8-1.008-4.928-2.856-5.992h-.028L84.226,2.186c-1.848-1.064-4.228-.868-6.692.532L13.586,39.648C8.91,42.336,5.1,48.888,5.13,54.264l.308,110.091c0,2.8,1.008,4.928,2.828,5.992l11.759,6.832c.028,0,.028.028.056.028a5.126,5.126,0,0,0,2.576.672,8.349,8.349,0,0,0,4.088-1.232l43.622-25.171v8.988c0,4.76,3.108,9.212,8.82,12.515,5.656,3.276,13.075,4.9,20.467,4.9,7.42,0,14.811-1.624,20.439-4.9,5.6-3.248,8.68-7.644,8.68-12.347v-2.324c1.092.084,2.212.112,3.3.112,7.616,0,14.839-1.736,20.355-4.928,5.6-3.248,8.68-7.644,8.708-12.347l.028-12.991c0-.056-.028-.112-.028-.168l.028-12.8v-.028c.028-4.788-3.108-9.212-8.82-12.487Zm-81.98,44.8V149.1L25.709,174.854c-1.792,1.036-3.444,1.232-4.62.56l-.028-.028c-1.176-.672-1.82-2.156-1.82-4.2L18.989,61.123a16.405,16.405,0,0,1,7.42-12.851l63.949-36.9c.252-.14.5-.28.756-.392a4.279,4.279,0,0,1,3.892-.168c1.176.672,1.82,2.184,1.82,4.228L97.134,125.1a14.048,14.048,0,0,1-1.176,5.264c-.784.056-1.54.112-2.3.224a4.6,4.6,0,0,0,.392-1.792l-.028-41.522A2.26,2.26,0,0,0,92.934,85.2l-.028-.028-5.1-3a2.356,2.356,0,0,0-2.352.14L73.531,89.206a5.094,5.094,0,0,0-2.38,4.116l.028,41.55a2.278,2.278,0,0,0,1.036,2.072l2.52,1.456c-2.8,2.688-4.34,5.8-4.34,9.044a.027.027,0,0,0-.028.028ZM91.982,128.8a2.956,2.956,0,0,1-1.2,2.212,36.045,36.045,0,0,0-11.7,4.116c-.252.14-.476.308-.7.448L78.347,96.29a3.2,3.2,0,0,1,1.344-2.352L91.618,87.05a.61.61,0,0,1,.28-.112,1.168,1.168,0,0,1,.056.308ZM126.729,160.6c0,3.948-2.744,7.7-7.672,10.584-10.668,6.216-28.111,6.216-38.862,0-5.04-2.912-7.812-6.72-7.812-10.752v-6.552a20,20,0,0,0,6.8,6.1c5.656,3.276,13.047,4.9,20.467,4.9s14.811-1.624,20.439-4.9a19.8,19.8,0,0,0,6.636-5.936Zm-7.644-2.38c-10.668,6.188-28.111,6.216-38.862,0-5.04-2.912-7.812-6.72-7.812-10.7s2.716-7.756,7.7-10.64c5.32-3.08,12.347-4.648,19.4-4.648,7.028,0,14.083,1.54,19.459,4.648,5.012,2.912,7.812,6.692,7.812,10.7C126.785,151.559,124.069,155.339,119.085,158.223Zm40.038-17.107c0,3.976-2.744,7.728-7.672,10.584-5.908,3.416-14.307,5.068-22.623,4.508l.028-8.568v-.028a10.981,10.981,0,0,0-.28-2.324c8.9.644,17.583-1.064,23.967-4.788a19.744,19.744,0,0,0,6.636-5.908Zm-7.644-2.38c-6.132,3.556-14.923,5.236-23.575,4.48h-.028c-1.316-3.052-3.976-5.824-7.868-8.064a38.975,38.975,0,0,0-15.231-4.62l.028-9.072a20,20,0,0,0,6.8,6.1c5.656,3.276,13.047,4.9,20.467,4.9s14.811-1.624,20.439-4.9a19.8,19.8,0,0,0,6.636-5.936v6.552a.168.168,0,0,0,.028.112c-.112,3.892-2.828,7.616-7.7,10.444Zm0-12.963c-10.668,6.216-28.111,6.216-38.862,0-5.04-2.912-7.812-6.692-7.812-10.7,0-3.976,2.716-7.728,7.672-10.612,5.348-3.108,12.375-4.648,19.4-4.648s14.083,1.54,19.459,4.648c5.04,2.912,7.812,6.72,7.812,10.7C159.151,119.109,156.435,122.888,151.479,125.772Z" transform="translate(0)" fill="#fff"/>
    <path id="Trazado_60" data-name="Trazado 60" d="M78.37,41.1c-8.064-4.648-21.111-4.648-29.119,0-4.032,2.352-6.272,5.544-6.272,8.988,0,3.472,2.268,6.664,6.384,9.044a29.786,29.786,0,0,0,14.559,3.5,29.408,29.408,0,0,0,14.559-3.5c4.032-2.352,6.272-5.544,6.272-8.988A8.342,8.342,0,0,0,83.1,45.217,14.7,14.7,0,0,0,78.37,41.1ZM75.794,55.744a1.009,1.009,0,0,1-.9.5.812.812,0,0,1-.5-.14l-1.148-.644a2.2,2.2,0,0,1-.5.308,9.369,9.369,0,0,1-4.7,1.148,9.591,9.591,0,0,1-4.7-1.148,1.016,1.016,0,1,1,1.008-1.764,8.3,8.3,0,0,0,7.364,0,2.958,2.958,0,0,0,.644-.476.611.611,0,0,1,.14-.112,1.494,1.494,0,0,0,.448-.952c0-.532-.476-1.092-1.26-1.568a8.3,8.3,0,0,0-7.364,0,10.213,10.213,0,0,1-9.436,0,3.936,3.936,0,0,1-2.268-3.332,3.134,3.134,0,0,1,.756-2.044l-.56-.336a1.023,1.023,0,0,1,1.036-1.764l1.232.7a10.348,10.348,0,0,1,9.212.112,1.028,1.028,0,0,1-1.008,1.792,8.3,8.3,0,0,0-7.364,0c-.784.448-1.232,1.008-1.232,1.54s.448,1.092,1.232,1.54a8.273,8.273,0,0,0,7.392,0,10.381,10.381,0,0,1,9.436,0,3.882,3.882,0,0,1,2.268,3.332,3.267,3.267,0,0,1-.336,1.456l.756.448a1.039,1.039,0,0,1,.364,1.4Z" transform="translate(68.125 64.988)" fill="#fff"/>
    <path id="Trazado_61" data-name="Trazado 61" d="M66.8,52.691c-8.036-4.648-21.111-4.648-29.119,0-4.06,2.352-6.3,5.544-6.272,8.988,0,3.472,2.268,6.664,6.384,9.044a29.71,29.71,0,0,0,14.559,3.5,29.71,29.71,0,0,0,14.559-3.5c4.032-2.352,6.272-5.544,6.272-8.988,0-3.472-2.268-6.664-6.384-9.044ZM64.253,67.334a1.009,1.009,0,0,1-.9.5,1.141,1.141,0,0,1-.5-.14l-1.12-.644c-.14.112-.336.224-.5.336a10.211,10.211,0,0,1-9.408,0,1.041,1.041,0,0,1-.392-1.4,1.024,1.024,0,0,1,1.4-.392,8.363,8.363,0,0,0,7.392,0,5.043,5.043,0,0,0,.7-.5.027.027,0,0,0,.028-.028,1.516,1.516,0,0,0,.5-1.008c0-.532-.448-1.092-1.232-1.54a8.363,8.363,0,0,0-7.392,0,10.381,10.381,0,0,1-9.436,0,3.936,3.936,0,0,1-2.268-3.332,3.081,3.081,0,0,1,.756-2.044l-.56-.336a1.039,1.039,0,0,1-.364-1.4,1.024,1.024,0,0,1,1.4-.392l1.26.728a10.2,10.2,0,0,1,9.184.112,1.023,1.023,0,1,1-1.036,1.764,8.363,8.363,0,0,0-7.392,0c-.084.056-.2.112-.28.168h-.028a1.833,1.833,0,0,0-.924,1.344c0,.532.448,1.092,1.232,1.568a8.363,8.363,0,0,0,7.392,0,10.3,10.3,0,0,1,9.436,0,3.936,3.936,0,0,1,2.268,3.332,2.854,2.854,0,0,1-.364,1.428l.784.448a1.073,1.073,0,0,1,.364,1.428Z" transform="translate(47.301 85.849)" fill="#fff"/>
  </g>
</svg>
