<svg xmlns="http://www.w3.org/2000/svg" width="114.487" height="176.37" viewBox="0 0 114.487 176.37">
  <g id="charla-financiera" transform="translate(-12.58 -1.561)">
    <path id="Trazado_62" data-name="Trazado 62" d="M126.983,33.062a2.9,2.9,0,0,0-1.375-2.749c-.028-.028-.084-.028-.112-.056h-.028l-7.574-4.4a3.02,3.02,0,0,0-3.086.224l-12.372,7.182-.028-21.265c0-2.048-.729-3.591-2.048-4.348L90.906,2.063c-1.347-.786-3.086-.645-4.909.393L28.206,35.84A13.508,13.508,0,0,0,22.09,46.416l.168,65.365-6.116,3.535a7.81,7.81,0,0,0-3.563,6.2l.112,21.854a2.969,2.969,0,0,0,1.347,2.749l7.715,4.461a2.87,2.87,0,0,0,.589.224l.056,16.72c.028,2.048.757,3.619,2.1,4.376l9.4,5.527.056.028a3.9,3.9,0,0,0,1.88.477,5.958,5.958,0,0,0,2.974-.9L96.6,143.678a13.246,13.246,0,0,0,6.116-10.576l-.168-59.81,20.984-12.175a7.7,7.7,0,0,0,3.535-6.2ZM20.435,147.549v.281l-5.5-3.17a1.47,1.47,0,0,1-.5-1.29l-.112-21.854a6.114,6.114,0,0,1,2.693-4.713L51.6,96.716a2.187,2.187,0,0,1,.982-.309.9.9,0,0,1,.393.084l5.5,3.17a.027.027,0,0,0-.028.028L23.886,119.776a7.884,7.884,0,0,0-3.563,6.2ZM117.08,27.339l5.47,3.17h-.028L87.932,50.6a5.38,5.38,0,0,0-1.4,1.15,1.1,1.1,0,0,0-.224.281l-.084.112A7.462,7.462,0,0,0,84.4,56.8l.168,30.578-6-3.451v-.056l-.168-31.5a6.144,6.144,0,0,1,2.721-4.713L115.7,27.564a1.535,1.535,0,0,1,1.375-.224ZM93.01,59.124a.617.617,0,0,1-.056-.393.434.434,0,0,1,.224-.309l28.811-16.748a.417.417,0,0,1,.252-.056.253.253,0,0,1,.14.028.434.434,0,0,1,.309.224.617.617,0,0,1,.056.393.434.434,0,0,1-.224.309L93.711,59.292A.533.533,0,0,1,93.01,59.124ZM53.763,133.606l6.2,2.974a1.663,1.663,0,0,0,1.571-.112,3.388,3.388,0,0,0,1.571-2.721l-.168-31.5a3.065,3.065,0,0,0-1.262-2.693c-.028-.028-.056-.056-.084-.056L53.9,95.061a2.96,2.96,0,0,0-3.086.224L39.483,101.85l-.168-48.561a5.417,5.417,0,0,1,1.852-3.2l8.416-4.853v.645c0,2.16.785,3.787,2.188,4.6s3.226.645,5.106-.421l19.946-11.5a14.1,14.1,0,0,0,6.4-11.109V25.824l7.434-4.292a1.683,1.683,0,0,1,2.525,1.459l.056,15.654L80.245,46.191a7.884,7.884,0,0,0-3.563,6.2l.168,31.5a1.612,1.612,0,0,0,.757,1.459l7.574,4.376v.028l.14.028a1.659,1.659,0,0,0,1.683-.084,2.859,2.859,0,0,0,1.066-1.094l5.3-8.753.14,54.62a4.678,4.678,0,0,1-1.852,3.17L42.148,166.233a1.683,1.683,0,0,1-2.525-1.459l-.056-22.92,14.167-8.22a.027.027,0,0,1,.028-.028ZM77.215,33.118a.4.4,0,0,1-.252.309l-19.3,11.137a.516.516,0,0,1-.7-.2.617.617,0,0,1-.056-.393.4.4,0,0,1,.252-.309l19.3-11.137a.617.617,0,0,1,.393-.056.4.4,0,0,1,.309.252A.394.394,0,0,1,77.215,33.118Zm17.73,4.517-.056-14.644a3.409,3.409,0,0,0-5.106-2.946L40.3,48.632A6.727,6.727,0,0,0,37.6,53.289l.14,49.515-4.376,2.553-.14-53.414a9.913,9.913,0,0,1,.9-3.9,12.462,12.462,0,0,1,2.609-3.815,10.017,10.017,0,0,1,1.739-1.375L96.264,9.469A4.274,4.274,0,0,1,98.4,8.8a2.216,2.216,0,0,1,1.066.252,3.244,3.244,0,0,1,1.234,2.918l.056,22.246ZM24.727,121.263l34.59-20.086a1.543,1.543,0,0,1,1.375-.224,1.435,1.435,0,0,1,.5,1.29l.168,31.5a1.636,1.636,0,0,1-.7,1.234c-.028,0-.028.028-.056.028l-6.172-2.974a1.646,1.646,0,0,0-1.6.112l-28.811,16.72a1.527,1.527,0,0,1-1.375.224l-.028-.028-.028-.028c-.028-.028-.028-.028-.056-.028a1.1,1.1,0,0,1-.224-.281,1.883,1.883,0,0,1-.2-.926l-.112-21.854a6.206,6.206,0,0,1,2.721-4.685Zm13.129,21.573.056,21.91a3.371,3.371,0,0,0,1.711,2.946,3.481,3.481,0,0,0,3.394,0L92.561,139.1a6.3,6.3,0,0,0,2.665-4.629l-.168-56.809,5.835-3.394.168,58.828a11.654,11.654,0,0,1-5.274,9.117L38,175.575c-1.262.729-2.385.87-3.2.393-1.094-.645-1.234-2.048-1.234-3.2l-.084-27.38ZM93.038,68.943a.617.617,0,0,1-.056-.393.434.434,0,0,1,.224-.309l19.834-11.53a.417.417,0,0,1,.252-.056.539.539,0,0,1,.449.252.617.617,0,0,1,.056.393.434.434,0,0,1-.224.309L93.739,69.139A.516.516,0,0,1,93.038,68.943Z" transform="translate(0 0)" fill="#fff"/>
    <path id="Trazado_63" data-name="Trazado 63" d="M22.261,53.933a3.167,3.167,0,0,0,3.17-.2.1.1,0,0,0,.056-.028,1.647,1.647,0,0,1,1.543-.252,1.565,1.565,0,0,1,.561,1.431,6.578,6.578,0,0,1-2.918,5.078,1.647,1.647,0,0,1-1.543.252,1.565,1.565,0,0,1-.561-1.431.833.833,0,0,0-.87-.842.764.764,0,0,0-.589.252.825.825,0,0,0-.252.617,3.09,3.09,0,0,0,1.431,2.89,2.606,2.606,0,0,0,1.29.337,2.5,2.5,0,0,0,.617-.084v1.038a.844.844,0,0,0,.842.842.87.87,0,0,0,.617-.252.825.825,0,0,0,.252-.617V61.143A8.3,8.3,0,0,0,29.3,54.83a3.09,3.09,0,0,0-1.431-2.89,3.165,3.165,0,0,0-3.17.2.1.1,0,0,0-.056.028,1.647,1.647,0,0,1-1.543.252,1.565,1.565,0,0,1-.561-1.431,6.675,6.675,0,0,1,2.918-5.106A1.647,1.647,0,0,1,27,45.629a1.565,1.565,0,0,1,.561,1.431.85.85,0,0,0,.87.842.764.764,0,0,0,.589-.252.825.825,0,0,0,.252-.617,3.09,3.09,0,0,0-1.431-2.89,2.883,2.883,0,0,0-1.964-.252V42.852a.844.844,0,0,0-.842-.842.87.87,0,0,0-.617.252.825.825,0,0,0-.252.617V44.7a8.149,8.149,0,0,0-3.338,6.284,3.271,3.271,0,0,0,1.431,2.946Z" transform="translate(14.894 73.025)" fill="#fff"/>
  </g>
</svg>
