<svg xmlns="http://www.w3.org/2000/svg" width="142.945" height="187.036" viewBox="0 0 142.945 187.036">
  <g id="transpa" transform="translate(-9.04 -1.653)">
    <path id="Trazado_162" data-name="Trazado 162" d="M28.221,51.854a1.216,1.216,0,0,0,.537-.149L66.107,30.2A1.09,1.09,0,1,0,65,28.316L27.654,49.825a1.1,1.1,0,0,0-.388,1.492,1.224,1.224,0,0,0,.955.537Z" transform="translate(35.859 52.59)" fill="#2d5c00"/>
    <path id="Trazado_163" data-name="Trazado 163" d="M16.6,53.35,39.926,39.9a1.09,1.09,0,0,0-1.1-1.879L15.494,51.47a1.1,1.1,0,0,0-.388,1.492,1.075,1.075,0,0,0,.955.537.865.865,0,0,0,.537-.149Z" transform="translate(11.744 71.827)" fill="#2d5c00"/>
    <path id="Trazado_164" data-name="Trazado 164" d="M48.315,33.166l-12.231,7.04A1.1,1.1,0,0,0,35.7,41.7a1.075,1.075,0,0,0,.955.537,1.216,1.216,0,0,0,.537-.149l12.231-7.04a1.09,1.09,0,1,0-1.1-1.879Z" transform="translate(52.578 62.209)" fill="#2d5c00"/>
    <path id="Trazado_165" data-name="Trazado 165" d="M63.653,38.764a1.1,1.1,0,0,0-1.492-.388L15.5,65.255a1.1,1.1,0,0,0-.388,1.492,1.075,1.075,0,0,0,.955.537,1.216,1.216,0,0,0,.537-.149L63.265,40.256a1.108,1.108,0,0,0,.388-1.492Z" transform="translate(11.763 72.541)" fill="#2d5c00"/>
    <path id="Trazado_166" data-name="Trazado 166" d="M70.586,38.016,24.854,64.358a1.1,1.1,0,0,0-.388,1.492,1.075,1.075,0,0,0,.955.537,1.216,1.216,0,0,0,.537-.149L71.69,39.9a1.09,1.09,0,0,0-1.1-1.879Z" transform="translate(30.306 71.827)" fill="#2d5c00"/>
    <path id="Trazado_167" data-name="Trazado 167" d="M29.5,49.536,15.5,57.591a1.1,1.1,0,0,0-.388,1.492,1.075,1.075,0,0,0,.955.537,1.216,1.216,0,0,0,.537-.149L30.6,51.416a1.09,1.09,0,0,0-1.1-1.879Z" transform="translate(11.763 94.674)" fill="#2d5c00"/>
    <path id="Trazado_168" data-name="Trazado 168" d="M58.223,48.836,15.5,73.448a1.1,1.1,0,0,0-.388,1.492,1.075,1.075,0,0,0,.955.537,1.216,1.216,0,0,0,.537-.149L59.327,50.716a1.09,1.09,0,0,0-1.1-1.879Z" transform="translate(11.763 93.286)" fill="#2d5c00"/>
    <path id="Trazado_169" data-name="Trazado 169" d="M16.422,78.784a2.422,2.422,0,0,0,1.283.328,3.74,3.74,0,0,0,1.85-.537l25.626-14.8a7.435,7.435,0,0,0,3.4-5.907l-.09-37.409a3.083,3.083,0,0,0-1.372-2.774,2.733,2.733,0,0,0-1.283-.328l-27.445,15.3a7.435,7.435,0,0,0-3.4,5.907l.03,37.439A3.041,3.041,0,0,0,16.422,78.784ZM31.129,33.618a5.446,5.446,0,0,1,2.715-.805,3.737,3.737,0,0,1,1.82.447,4.368,4.368,0,0,1,1.969,4.057,11.652,11.652,0,0,1-5.37,9.308,5.446,5.446,0,0,1-2.715.805,3.532,3.532,0,0,1-1.82-.477A4.428,4.428,0,0,1,25.759,42.9,11.611,11.611,0,0,1,31.129,33.618Zm.03,15.483a11.6,11.6,0,0,1,5.7-1.73,7.042,7.042,0,0,1,3.52.925c2.506,1.432,3.878,4.385,3.878,8.293v.626L19.2,71.684V69.8c0-7.726,5.25-16.825,11.963-20.7Z" transform="translate(11.8 31.149)" fill="#2d5c00"/>
    <path id="Trazado_170" data-name="Trazado 170" d="M151.935,78.908a7.715,7.715,0,0,0-2.924-5.34A7.936,7.936,0,0,0,138,74.731l-2.476,2.983-.03.03-1.611,1.969c-.03.03-.03.06-.06.089l-1.611,2-.03.03-.089.089-20.674,25.924L111.3,60.86l31.95-18.436a8.285,8.285,0,0,0,3.789-6.563l-.06-27a3.4,3.4,0,0,0-1.432-2.983c-.03,0-.03-.03-.06-.03L138.869,2a3.431,3.431,0,0,0-3.4.239L111.185,16.261V13.337c0-2.715-.984-4.773-2.745-5.787L99.431,2.329c-1.79-1.044-4.057-.865-6.444.507L17.125,46.481c-4.475,2.6-8.114,8.86-8.084,13.991l.328,116.554c0,2.715.984,4.743,2.745,5.787l9.009,5.221h.03a4.84,4.84,0,0,0,2.506.656A7.858,7.858,0,0,0,27.6,187.5l75.833-43.7a17.531,17.531,0,0,0,8.055-13.991.883.883,0,0,0-.06-.3l4.892-2.685a1.064,1.064,0,0,0,.328-.3l27.744-34.784,3.282-4.027,2.506-3.013a7.539,7.539,0,0,0,1.76-5.787Zm-17.78,10.71a12.908,12.908,0,0,0,2.476,1.939l-25.745,32.248a10.252,10.252,0,0,1-1.641-1.163,6.64,6.64,0,0,1-.805-.776Zm-2.416-3.759a2.07,2.07,0,0,0,.149.388,9.62,9.62,0,0,0,.865,1.641l-25.715,32.219a6.425,6.425,0,0,1-.507-1.014,3.922,3.922,0,0,1-.3-1.283ZM143.165,7.908a1.346,1.346,0,0,1,1.223-.239,1.442,1.442,0,0,1,.418,1.134l.06,27a6.035,6.035,0,0,1-2.715,4.684l-32.1,18.555a1.073,1.073,0,0,0-.686.388l-.567.328a3.225,3.225,0,0,0-1.134,1.223l-5.37,10.053a1.966,1.966,0,0,1-.507.626l-.119-36.693a6.035,6.035,0,0,1,2.715-4.684Zm-40.81,134.065-75.863,43.7c-1.671.955-3.192,1.163-4.3.537a2.935,2.935,0,0,1-1.193-1.4c0-.03-.03-.03-.03-.06-.03-.089-.06-.239-.089-.328a6.261,6.261,0,0,1-.328-2.088L20.227,65.752A15.387,15.387,0,0,1,27.238,53.64l75.8-43.734h.03a6.532,6.532,0,0,1,2.357-.865h.03a3.011,3.011,0,0,1,1.879.328c1.074.626,1.671,2.029,1.671,3.938v4.176l-12.321,7.1a7.382,7.382,0,0,0-2.506,2.566,1.22,1.22,0,0,0-.716.119L66.586,42.752a1.1,1.1,0,0,0-.388,1.492,1.075,1.075,0,0,0,.955.537,1.216,1.216,0,0,0,.537-.149L93.047,30.013a7.31,7.31,0,0,0-.119,1.134l.03,10.919a.179.179,0,0,1-.119.03L66.586,57.22a1.1,1.1,0,0,0-.388,1.492,1.075,1.075,0,0,0,.955.537,1.216,1.216,0,0,0,.537-.149L92.957,44.541l.03,11.992c-.06.03-.119.03-.149.06L66.586,71.718A1.1,1.1,0,0,0,66.2,73.21a1.075,1.075,0,0,0,.955.537,1.216,1.216,0,0,0,.537-.149L93.017,59.01l.03,9.069A2.03,2.03,0,0,0,94,69.928l.418.239-27.8,16.02a1.1,1.1,0,0,0-.388,1.492,1.075,1.075,0,0,0,.955.537,1.216,1.216,0,0,0,.537-.149l28.7-16.527c.06-.03.089-.09.119-.119l4.057,2.357a1.938,1.938,0,0,0,.925.239,2.487,2.487,0,0,0,1.223-.358,3.925,3.925,0,0,0,1.492-1.611l4.922-9.218.119,47.7-3.759,4.713-1.163,1.462a.942.942,0,0,0-.328.507L101.131,128.1c0,.03-.03.06-.06.119l-1.432,5.4a9.741,9.741,0,0,0-3.58,2.774,8.3,8.3,0,0,1-2.745,2.267,3.3,3.3,0,0,1-2.983-.388,1.087,1.087,0,0,0-1.193-.06,1.121,1.121,0,0,0-.507,1.074,2.706,2.706,0,0,1-2.208,2.774,3.611,3.611,0,0,1-1.134,0,9.013,9.013,0,0,0,.537-1.074,8.7,8.7,0,0,0-.388-7.309,3.607,3.607,0,0,0-2.715-2.148,3.177,3.177,0,0,0-2.864,1.551,5.664,5.664,0,0,0-.686,2.655,9.336,9.336,0,0,0,1.671,5.966,5.6,5.6,0,0,0,1.014,1.044,6.185,6.185,0,0,1-2.088,1.134,1.108,1.108,0,0,0-.716,1.372A1.093,1.093,0,0,0,80.1,146a1.268,1.268,0,0,0,.328-.06,8.838,8.838,0,0,0,3.4-2.058,5.4,5.4,0,0,0,2.983.268A4.951,4.951,0,0,0,90.6,140.72a5.2,5.2,0,0,0,3.49-.119,9.822,9.822,0,0,0,3.58-2.834c.984-1.074,1.939-2.118,3.132-2.327a1.036,1.036,0,0,0,.746-.567l7.726-4.236c-.388,4.385-3.311,9.248-6.921,11.336ZM83.8,140.213a7.714,7.714,0,0,1-.507.984,4.239,4.239,0,0,1-.716-.746,7.183,7.183,0,0,1-1.253-4.564,3.474,3.474,0,0,1,.358-1.611,1.059,1.059,0,0,1,.746-.537h.03c.328.03.686.388,1.014.984a6.448,6.448,0,0,1,.328,5.489Zm22.344-10.232a7.078,7.078,0,0,0-2.715-2.148l1.76-6.653a13.255,13.255,0,0,0,2.655,3.073,12.8,12.8,0,0,0,4.236,2.446Zm10.053-6.295-1.014,1.283a4.8,4.8,0,0,1-1.313,0c-.3-.06-.626-.149-.955-.239L138.63,92.511a10.82,10.82,0,0,0,1.611.447h.03c.149.03.268.03.418.06ZM148.5,83.353l-2.3,2.774-.03.03a2.534,2.534,0,0,1-2.3.507,9.513,9.513,0,0,1-6.653-5.34,2.424,2.424,0,0,1,0-2.327l2.446-2.953a5.732,5.732,0,0,1,7.965-.835,5.79,5.79,0,0,1,.865,8.144Z" transform="translate(0 0)" fill="#2d5c00"/>
    <path id="Trazado_171" data-name="Trazado 171" d="M44.114,28.543l6.772,4.236a1.054,1.054,0,0,0,.567.179.826.826,0,0,0,.268-.03.994.994,0,0,0,.686-.507L65.742,9.928a1.09,1.09,0,1,0-1.879-1.1L51.095,30.363l-5.817-3.669a1.093,1.093,0,0,0-1.163,1.85Z" transform="translate(68.562 13.164)" fill="#2d5c00"/>
  </g>
</svg>
