<svg xmlns="http://www.w3.org/2000/svg" width="121.204" height="165.999" viewBox="0 0 121.204 165.999">
  <g id="vision" transform="translate(-6.69 -1.512)">
    <path id="Trazado_221" data-name="Trazado 221" d="M82.45,136.106a1.065,1.065,0,0,0,.28.084.658.658,0,0,0,.224.056,1.031,1.031,0,0,0,.475-.14h.056l8.334-4.81a1.036,1.036,0,0,0,.475-1.147L82.03,93.318a97.166,97.166,0,0,0,6.376-8.39l10.459,5.985-2.265,8a.966.966,0,0,0,.475,1.147l19.185,11.074a1.14,1.14,0,0,0,.5.14.987.987,0,0,0,.392-.084,1.011,1.011,0,0,0,.587-.671l2.181-7.747a2.761,2.761,0,0,0,1.091,1.286,2.626,2.626,0,0,0,1.314.336,4,4,0,0,0,1.93-.559,7.893,7.893,0,0,0,3.636-6.32,3.248,3.248,0,0,0-1.426-2.908l-6.152-3.58-1.37-8.725a1.039,1.039,0,0,0-.5-.727L99.257,70.5a1.027,1.027,0,0,0-1.091.056.962.962,0,0,0-.42,1.007l1.119,6.991-4.95-2.88c6.32-12.053,9.788-24.806,9.732-35.964-.028-12.473-4.307-21.813-12.053-26.344-.028,0-.028-.028-.056-.028L76.073,4.359C68.215-.228,57.812.751,46.765,7.127,24.616,19.908,6.606,51.062,6.69,76.566c.028,12.5,4.335,21.869,12.081,26.372L31.8,110.517,21.121,162.393a1.058,1.058,0,0,0,.475,1.091l6.712,3.915a.885.885,0,0,0,.447.112h.056a1.122,1.122,0,0,0,.419-.084c.028,0,.028-.028.056-.028h.056l8.334-4.81a.982.982,0,0,0,.475-.671l9.76-47.318a39.4,39.4,0,0,0,15.6-5.425c1.566-.895,3.1-1.9,4.642-2.992l7.075,25.449a1.159,1.159,0,0,0,.475.615Zm7.635-6.18L83.6,133.673l-9.089-32.636c2.014-1.818,4-3.8,5.9-5.9Zm33.2-27.882a1.429,1.429,0,0,1-1.23.224,1.336,1.336,0,0,1-.419-1.147,5.933,5.933,0,0,1,2.629-4.558,1.382,1.382,0,0,1,1.2-.224,1.336,1.336,0,0,1,.419,1.147A5.783,5.783,0,0,1,123.28,102.043ZM99.593,83.194a1.039,1.039,0,0,0,.5.727L119.28,95a1.14,1.14,0,0,0,.5.14,1.175,1.175,0,0,0,.587-.168.962.962,0,0,0,.419-1.007l-.056-.364,2.321,1.342a8.121,8.121,0,0,0-3.328,4.95L100.515,89.515,76.689,75.923l-11.857-6.88-.028-.028-3.552-2.069a1.336,1.336,0,0,1-.419-1.147,5.933,5.933,0,0,1,2.629-4.558,1.439,1.439,0,0,1,1.23-.224L92.07,76.93,99.257,81.1ZM60.245,68.708l2.265,1.314c-.028,0-.028.028-.056.056-1.622.923-3.076,1.119-4.111.5-1.035-.587-1.622-1.93-1.622-3.775a14.84,14.84,0,0,1,6.712-11.634c1.622-.923,3.076-1.119,4.139-.5,1.035.587,1.622,1.93,1.622,3.775a10.931,10.931,0,0,1-.336,2.629l-3.076-1.79a3.238,3.238,0,0,0-3.272.224,8.037,8.037,0,0,0-3.664,6.32,3.1,3.1,0,0,0,1.4,2.88ZM77.947,54.5c0-4.67-1.65-8.166-4.614-9.872-2.992-1.734-6.88-1.37-10.963.979-8.026,4.614-14.514,15.885-14.486,25.085,0,4.67,1.65,8.166,4.614,9.872a8.182,8.182,0,0,0,4.167,1.063,13.847,13.847,0,0,0,6.8-2.069,25.921,25.921,0,0,0,6.348-5.341l5.146,2.992A43.312,43.312,0,0,1,62.51,88.676c-5.957,3.44-11.522,4.055-15.661,1.678C42.766,88,40.5,82.943,40.473,76.147,40.445,61.6,50.708,43.818,63.349,36.491c5.985-3.44,11.522-4.027,15.661-1.65,4.083,2.349,6.348,7.411,6.376,14.207A44.685,44.685,0,0,1,80.632,67.9l-5.006-2.908A27.415,27.415,0,0,0,77.947,54.5ZM36.25,161.023l-5.957,3.44,10.347-50.171a23.931,23.931,0,0,0,4.53.447c.2,0,.419-.028.643-.028Zm26.26-53.638c-10.375,5.985-20.247,6.908-27.406,2.657a1.184,1.184,0,0,1-.2-.14c-.392-.252-.783-.5-1.147-.755-6.152-4.447-9.536-12.724-9.564-23.6-.056-24.862,17.479-55.232,39.1-67.733,10.319-5.957,19.94-6.936,27.155-2.825,7.187,4.111,11.158,12.864,11.186,24.666.028,10.823-3.328,23.184-9.48,34.929l-4.139-2.405c4.754-9.341,7.383-19.157,7.355-27.742-.028-9.984-3.5-17.479-9.732-21.086-6.292-3.608-14.57-2.825-23.323,2.237C44.7,35.764,30.433,60.486,30.489,80.733c.028,9.984,3.5,17.479,9.732,21.058a17.363,17.363,0,0,0,8.7,2.237c4.5,0,9.48-1.51,14.6-4.475,6.908-4,13.424-10.235,18.9-18.066l4.167,2.377c-6.824,10.18-15.353,18.485-24.079,23.519Z" transform="translate(0 0)" fill="#fff"/>
  </g>
</svg>
